<svg width="24" height="24" viewBox="0 0 24 24" fill="none" xmlns="http://www.w3.org/2000/svg">
<path d="M16.1108 2H7.3782C4.41266 2 2 4.41278 2 7.37831V16.1109C2 19.0765 4.41266 21.4892 7.3782 21.4892H16.1108C19.0765 21.4892 21.4892 19.0764 21.4892 16.1109V7.37831C21.4893 4.41278 19.0765 2 16.1108 2ZM19.7601 16.1109C19.7601 18.1231 18.1231 19.76 16.1109 19.76H7.3782C5.36613 19.7601 3.72918 18.1231 3.72918 16.1109V7.37831C3.72918 5.36624 5.36613 3.72918 7.3782 3.72918H16.1108C18.1229 3.72918 19.76 5.36624 19.76 7.37831V16.1109H19.7601Z" fill="#F7618B"/>
<path d="M11.7482 6.72546C8.97909 6.72546 6.72632 8.97823 6.72632 11.7473C6.72632 14.5163 8.97909 16.769 11.7482 16.769C14.5173 16.769 16.7701 14.5163 16.7701 11.7473C16.7701 8.97823 14.5173 6.72546 11.7482 6.72546ZM11.7482 15.0397C9.93267 15.0397 8.45549 13.5627 8.45549 11.7472C8.45549 9.93159 9.93256 8.45452 11.7482 8.45452C13.5638 8.45452 15.0409 9.93159 15.0409 11.7472C15.0409 13.5627 13.5637 15.0397 11.7482 15.0397Z" fill="#F7618B"/>
<path fill-rule="evenodd" clip-rule="evenodd" d="M16.9863 5.22571C16.6532 5.22571 16.3259 5.36058 16.0906 5.5969C15.8542 5.83207 15.7183 6.15946 15.7183 6.49377C15.7183 6.82704 15.8543 7.15432 16.0906 7.39064C16.3258 7.6258 16.6532 7.76183 16.9863 7.76183C17.3206 7.76183 17.6469 7.6258 17.8832 7.39064C18.1195 7.15432 18.2544 6.82693 18.2544 6.49377C18.2544 6.15946 18.1195 5.83207 17.8832 5.5969C17.648 5.36058 17.3206 5.22571 16.9863 5.22571Z" fill="#F7618B"/>
</svg>
