<svg xmlns="http://www.w3.org/2000/svg" viewBox="0 0 956.15 192.02"><defs><style>.cls-1{fill:#fff;}</style></defs><g id="Layer_2" data-name="Layer 2"><g id="Logos"><path class="cls-1" d="M69.35,3.56V25.22A23.74,23.74,0,0,1,57.48,45.77L14.83,70.39A29.66,29.66,0,0,0,0,96.08v14.35a7.12,7.12,0,0,0,3.56,6.17l21.92,12.66a3.56,3.56,0,0,0,5.34-3.09V110.45A23.72,23.72,0,0,1,42.69,89.9L85.33,65.28a29.68,29.68,0,0,0,14.84-25.69V19.3a7.12,7.12,0,0,0-3.56-6.16L74.68.48A3.55,3.55,0,0,0,69.35,3.56Z"/><path class="cls-1" d="M119.72,72.11,68.77,101.53a29.66,29.66,0,0,0-14.83,25.69v14.35a7.11,7.11,0,0,0,3.55,6.17L79.42,160.4a3.57,3.57,0,0,0,5.34-3.09V141.59A23.73,23.73,0,0,1,96.62,121l52.14-30.11a3.56,3.56,0,0,0,0-6.16L126.84,72.11A7.13,7.13,0,0,0,119.72,72.11Z"/><path class="cls-1" d="M137.71,124l-15,8.66a29.66,29.66,0,0,0-14.83,25.69v14.35a7.12,7.12,0,0,0,3.56,6.17l21.92,12.65a3.56,3.56,0,0,0,5.34-3.08V172.73a23.72,23.72,0,0,1,11.87-20.55l16.19-9.35a3.57,3.57,0,0,0,0-6.17L144.83,124A7.13,7.13,0,0,0,137.71,124Z"/><path class="cls-1" d="M229.24,69.65v25H268a2.24,2.24,0,0,1,2.24,2.24v8.53a2.24,2.24,0,0,1-2.24,2.24H229.24v32.62a2.24,2.24,0,0,1-2.24,2.24h-9a2.24,2.24,0,0,1-2.24-2.24V58.88A2.24,2.24,0,0,1,218,56.64H273a2.24,2.24,0,0,1,2.24,2.24v8.53A2.24,2.24,0,0,1,273,69.65Z"/><path class="cls-1" d="M693.68,58.88v81.45a2.24,2.24,0,0,1-2.24,2.24h-9a2.24,2.24,0,0,1-2.24-2.24v-4.76c-4.42,5.41-10.93,8.84-19.64,8.84-16.21,0-27.75-13.75-27.75-31.55,0-17.55,11.54-31.67,27.75-31.67,8.71,0,15.22,3.56,19.64,9V58.88a2.24,2.24,0,0,1,2.24-2.24h9A2.24,2.24,0,0,1,693.68,58.88Zm-13.5,54c0-10.68-6.88-18.53-16.82-18.53s-17.06,7.85-17.06,18.53,6.87,18.42,17.06,18.42C673.3,131.28,680.18,123.54,680.18,112.86Z"/><path class="cls-1" d="M378,124.41a2.28,2.28,0,0,0-2.35,1.08c-2.64,4.32-7.45,6.89-13.12,6.89-9.33,0-16.08-6.14-17.55-16.32h41.34a2.25,2.25,0,0,0,2.24-2.24v-4c0-16.69-10.44-28.48-26.89-28.48-17.68,0-29.34,13.88-29.34,31.68,0,18,12,31.55,30.2,31.42,11.9-.1,21.8-6.49,25.86-16.22a1.5,1.5,0,0,0-1.11-2ZM361.63,93c8.72,0,14.49,5.64,14.73,12.52H345.55C347.64,98,353.65,93,361.63,93Z"/><path class="cls-1" d="M502.55,119.47a1.86,1.86,0,0,0-2.2,1.77c-.19,6.63-3.7,10.53-9,10.53-5.77,0-9.46-3.56-9.46-10.07V94.82h27a2.24,2.24,0,0,0,2.24-2.24V85.4a2.24,2.24,0,0,0-2.24-2.24h-27V68a2.24,2.24,0,0,0-2.24-2.24h-9A2.24,2.24,0,0,0,468.37,68v15.2H460.3a2.24,2.24,0,0,0-2.24,2.24v7.18a2.24,2.24,0,0,0,2.24,2.24h8.07V121c0,14.48,8.84,23.44,23.45,23.44,12,0,21.17-8.25,21.51-21.61a1.52,1.52,0,0,0-1.22-1.53Z"/><path class="cls-1" d="M442.47,124.41a2.28,2.28,0,0,0-2.35,1.08c-2.64,4.32-7.45,6.89-13.12,6.89-9.33,0-16.08-6.14-17.55-16.32h41.33a2.24,2.24,0,0,0,2.24-2.24v-4c0-16.69-10.43-28.48-26.88-28.48-17.68,0-29.34,13.88-29.34,31.68,0,18,12,31.55,30.2,31.42,11.9-.1,21.8-6.49,25.86-16.22a1.5,1.5,0,0,0-1.12-2ZM426.14,93c8.72,0,14.49,5.64,14.73,12.52H410.06C412.15,98,418.16,93,426.14,93Z"/><path class="cls-1" d="M747.89,124.41a2.27,2.27,0,0,0-2.35,1.08c-2.65,4.32-7.46,6.89-13.12,6.89-9.33,0-16.09-6.14-17.56-16.32H756.2a2.24,2.24,0,0,0,2.24-2.24v-4c0-16.69-10.43-28.48-26.88-28.48-17.68,0-29.34,13.88-29.34,31.68,0,18,12,31.55,30.2,31.42,11.9-.1,21.79-6.49,25.85-16.22a1.49,1.49,0,0,0-1.11-2ZM731.56,93c8.71,0,14.48,5.64,14.73,12.52H715.48C717.56,98,723.58,93,731.56,93Z"/><path class="cls-1" d="M566.29,105.07a2.24,2.24,0,0,0,2.25-2.28c-.36-14.91-7.61-21.6-17.93-21.6-6.88,0-12,3-15.35,7.61V85.4A2.24,2.24,0,0,0,533,83.16h-9a2.24,2.24,0,0,0-2.24,2.24v54.93a2.24,2.24,0,0,0,2.24,2.24h9a2.24,2.24,0,0,0,2.24-2.24V109.79c0-10.68,4.67-16.08,11-16.08,5,0,8.17,3.08,8.72,9.34a2.23,2.23,0,0,0,2.23,2Z"/><path class="cls-1" d="M599.64,81.19c-12.63,0-24.19,7.3-24.09,21.7a2.22,2.22,0,0,0,2.24,2.18h8.06a2.24,2.24,0,0,0,2.23-2.12c.4-6.34,4.6-10.34,11.93-10.34,7.73,0,11.66,4.17,11.66,9.33v2.21l-13.75,2.33c-14.61,2.46-22.59,8.47-22.59,20.26,0,8.34,6.39,17.67,20.26,17.67,8.22,0,13.62-4.17,16.2-8.71v4.63a2.24,2.24,0,0,0,2.24,2.24h8a2.24,2.24,0,0,0,2.24-2.24V102.68C624.31,89.79,616,81.19,599.64,81.19Zm12,36.34c0,9-5.65,14.73-13.5,14.73-6.14,0-10.07-2.82-10.07-7.12,0-5.4,5.65-7.37,11.78-8.47l11.79-2Z"/><path class="cls-1" d="M323.91,105.07a2.24,2.24,0,0,0,2.24-2.28c-.36-14.91-7.61-21.6-17.93-21.6-6.87,0-12,3-15.34,7.61V85.4a2.24,2.24,0,0,0-2.24-2.24h-9a2.24,2.24,0,0,0-2.24,2.24v54.93a2.24,2.24,0,0,0,2.24,2.24h9a2.24,2.24,0,0,0,2.24-2.24V109.79c0-10.68,4.66-16.08,11-16.08,5.05,0,8.17,3.08,8.72,9.34a2.23,2.23,0,0,0,2.23,2Z"/><path class="cls-1" d="M826.79,103.12h-6.73a.9.9,0,0,0-.9.9v6.19a.9.9,0,0,0,.9.91h6.73c2.87,0,4.44-1.43,4.44-4S829.66,103.12,826.79,103.12Z"/><path class="cls-1" d="M925.75,81.19H818a30.41,30.41,0,0,0-30.41,30.41v3A30.4,30.4,0,0,0,818,145H925.75a30.4,30.4,0,0,0,30.4-30.41v-3A30.41,30.41,0,0,0,925.75,81.19Zm-98.5,36.13h-7.19a.9.9,0,0,0-.9.91V128.4a.91.91,0,0,1-.91.91h-4.67a.9.9,0,0,1-.9-.91V97.82a.9.9,0,0,1,.9-.9h13.67c6.53,0,10.46,4.21,10.46,10.18S833.82,117.32,827.25,117.32Zm40.62,11.08a.91.91,0,0,1-.91.91H845.64a.91.91,0,0,1-.91-.91V97.82a.9.9,0,0,1,.91-.9h4.66a.9.9,0,0,1,.91.9V122.2a.91.91,0,0,0,.91.91H867a.9.9,0,0,1,.91.9Zm19.58,1.6c-8.42,0-13.84-5.6-13.84-13.7l0-18.48a.9.9,0,0,1,.9-.9h4.67a.89.89,0,0,1,.9.9l0,18.39c0,4.72,2.68,7.59,7.36,7.59s7.26-2.82,7.26-7.59l0-18.39a.9.9,0,0,1,.9-.9h4.67a.91.91,0,0,1,.91.9l0,18.48C901.19,124.4,895.78,130,887.45,130Zm35.11,0c-7.11,0-12.09-3.93-13.7-10.32a.9.9,0,0,1,.57-1.06l4.34-1.6a.89.89,0,0,1,1.17.61c1.18,4,3.88,6.17,7.62,6.17,4,0,6.29-1.76,6.29-4.4,0-2-2-3.42-7-3.93-7.54-.74-11.43-4.07-11.43-10.09,0-5.41,5-9.16,11.75-9.16,5.86,0,10.42,3.27,12,8.29a.9.9,0,0,1-.52,1.09l-4.45,1.85A.89.89,0,0,1,928,107a6.23,6.23,0,0,0-5.84-4.48c-3.14,0-5.27,1.25-5.27,3,0,2,1.25,3.06,5.69,3.52,8.24.83,12.77,3.93,12.77,10.18S930.33,130,922.56,130Z"/></g></g></svg>