<?xml version="1.0" encoding="utf-8"?>
<!-- Generator: Adobe Illustrator 26.0.2, SVG Export Plug-In . SVG Version: 6.00 Build 0) -->
<svg version="1.1" id="Layer_1" xmlns="http://www.w3.org/2000/svg" xmlns:xlink="http://www.w3.org/1999/xlink" x="0px" y="0px"
viewBox="0 0 214.9 78.4" style="enable-background:new 0 0 214.9 78.4;" xml:space="preserve">
<style type="text/css">
.st0{fill:url(#SVGID_1_);}
.st1{fill:url(#SVGID_00000047772220037786977990000012596839448160302770_);}
.st2{fill:#FFFFFF;}
.st3{fill:#1C89C2;}
.st4{fill:#211C1F;}
.st5{fill:#231F20;}
.st6{fill:url(#SVGID_00000141430446009043167550000000839500305807730587_);}
.st7{fill:#D61F27;}
.st8{fill:#58595B;}
</style>
<g>
<linearGradient id="SVGID_1_" gradientUnits="userSpaceOnUse" x1="101.3531" y1="2.4145" x2="101.3531" y2="31.8008">
<stop offset="0" style="stop-color:#3BB44A"/>
<stop offset="1" style="stop-color:#016937"/>
</linearGradient>
<path class="st0" d="M85.9,16.9c0.8,0,1.6,0.3,2.1,0.9l10.2-5.1c0-0.2-0.1-0.4-0.1-0.6c0-1.7,1.3-3,3-3s3,1.3,3,3
c0,0.2,0,0.3-0.1,0.5l7.4,3.7c0.5-0.6,1.3-0.9,2.1-0.9c0.8,0,1.5,0.3,2.1,0.8l10.4-5.2c0-0.2-0.1-0.4-0.1-0.6
c0-0.4,0.1-0.7,0.2-1.1L107.4,0L76.4,15.5l6.8,3.4C83.6,17.7,84.7,16.9,85.9,16.9z"/>
<linearGradient id="SVGID_00000018924295606559449170000014845816134577355173_" gradientUnits="userSpaceOnUse" x1="113.5167" y1="2.4145" x2="113.5167" y2="31.8008">
<stop offset="0" style="stop-color:#069DD8"/>
<stop offset="1" style="stop-color:#0A5892"/>
</linearGradient>
<path style="fill:url(#SVGID_00000018924295606559449170000014845816134577355173_);" d="M131.7,12.1c-0.5,0.8-1.5,1.4-2.5,1.4
c-0.8,0-1.5-0.3-2-0.8l-10.5,5.2c0,0.1,0,0.3,0,0.5c0,1.7-1.3,3-3,3s-3-1.3-3-3c0-0.1,0-0.2,0-0.3l-7.5-3.7c-0.5,0.5-1.2,0.8-2,0.8
c-0.8,0-1.4-0.3-2-0.8l-10.4,5.2c0,0.1,0,0.3,0,0.4c0,0.6-0.2,1.1-0.5,1.6l18.9,9.4l31.1-15.5L131.7,12.1z"/>
<path class="st2" d="M115.8,16.2l10.4-5.2c0-0.2-0.1-0.4-0.1-0.6c0-0.4,0.1-0.7,0.2-1.1l5.4,2.7c-0.5,0.8-1.5,1.4-2.5,1.4
c-0.8,0-1.5-0.3-2-0.8l-10.5,5.2c0,0.1,0,0.3,0,0.5c0,1.7-1.3,3-3,3s-3-1.3-3-3c0-0.1,0-0.2,0-0.3l-7.5-3.7c-0.5,0.5-1.2,0.8-2,0.8
c-0.8,0-1.4-0.3-2-0.8l-10.4,5.2c0,0.1,0,0.3,0,0.4c0,0.6-0.2,1.1-0.5,1.6l-5.4-2.7c0.4-1.1,1.5-1.9,2.8-1.9c0.8,0,1.6,0.3,2.1,0.9
l10.2-5.1c0-0.2-0.1-0.4-0.1-0.6c0-1.7,1.3-3,3-3s3,1.3,3,3c0,0.2,0,0.3-0.1,0.5l7.4,3.7c0.5-0.6,1.3-0.9,2.1-0.9
C114.5,15.4,115.3,15.7,115.8,16.2"/>
</g>
<g>
<g>
<path class="st3" d="M110.1,39.9h3.3l7.8,21.5H118l-2.2-6.4h-8.4l-2.3,6.4h-3L110.1,39.9z M114.9,52.6l-3.3-9.5l-3.4,9.5H114.9z"
/>
<path class="st3" d="M131.9,46.6c1.1,0.9,1.8,2.3,2,4.4h-2.6c-0.2-1-0.5-1.8-1.1-2.4c-0.6-0.6-1.4-1-2.7-1c-1.7,0-2.9,0.8-3.6,2.5
c-0.5,1.1-0.7,2.4-0.7,3.9c0,1.6,0.3,2.9,1,4c0.7,1.1,1.7,1.6,3.1,1.6c1.1,0,2-0.3,2.6-1c0.6-0.7,1.1-1.6,1.3-2.7h2.6
c-0.3,2.1-1,3.6-2.2,4.5c-1.2,1-2.7,1.4-4.5,1.4c-2,0-3.7-0.7-4.9-2.2c-1.2-1.5-1.8-3.4-1.8-5.6c0-2.7,0.7-4.9,2-6.4
c1.3-1.5,3-2.3,5.1-2.3C129.4,45.3,130.8,45.7,131.9,46.6z"/>
<path class="st3" d="M143.8,51.9c0.6-0.1,1-0.3,1.2-0.8c0.1-0.2,0.2-0.6,0.2-1c0-0.9-0.3-1.6-1-2c-0.6-0.4-1.5-0.6-2.7-0.6
c-1.4,0-2.3,0.4-2.9,1.1c-0.3,0.4-0.5,1-0.6,1.8h-2.5c0-1.9,0.7-3.3,1.9-4c1.2-0.8,2.6-1.1,4.2-1.1c1.8,0,3.3,0.4,4.5,1.1
c1.1,0.7,1.7,1.8,1.7,3.3v9c0,0.3,0.1,0.5,0.2,0.7c0.1,0.2,0.3,0.2,0.7,0.2c0.1,0,0.2,0,0.4,0c0.1,0,0.3,0,0.5-0.1v1.9
c-0.4,0.1-0.7,0.2-0.9,0.2c-0.2,0-0.5,0-0.9,0c-0.9,0-1.6-0.3-2-1c-0.2-0.3-0.4-0.8-0.5-1.4c-0.5,0.7-1.3,1.3-2.3,1.8
c-1,0.5-2.1,0.8-3.3,0.8c-1.5,0-2.6-0.4-3.6-1.3c-0.9-0.9-1.4-2-1.4-3.3c0-1.4,0.5-2.6,1.4-3.4c0.9-0.8,2.1-1.3,3.6-1.5
L143.8,51.9z M138.3,59c0.6,0.4,1.2,0.7,2,0.7c0.9,0,1.8-0.2,2.7-0.6c1.5-0.7,2.2-1.9,2.2-3.5v-2.1c-0.3,0.2-0.7,0.4-1.2,0.5
c-0.5,0.1-1,0.2-1.5,0.3l-1.6,0.2c-1,0.1-1.7,0.3-2.1,0.6c-0.8,0.5-1.2,1.2-1.2,2.2C137.5,58,137.7,58.6,138.3,59z"/>
<path class="st3" d="M158.8,46.2c0.5,0.3,1,0.8,1.6,1.5v-7.9h2.5v21.5h-2.4v-2.2c-0.6,1-1.3,1.7-2.2,2.1c-0.8,0.4-1.8,0.6-2.9,0.6
c-1.7,0-3.2-0.7-4.5-2.2c-1.3-1.5-1.9-3.4-1.9-5.8c0-2.3,0.6-4.3,1.7-5.9c1.2-1.7,2.8-2.5,5-2.5C157,45.5,158,45.7,158.8,46.2z
M152.9,57.9c0.7,1.1,1.8,1.7,3.4,1.7c1.2,0,2.2-0.5,3-1.6c0.8-1,1.2-2.5,1.2-4.5c0-2-0.4-3.4-1.2-4.4c-0.8-0.9-1.8-1.4-3-1.4
c-1.3,0-2.4,0.5-3.2,1.5c-0.8,1-1.2,2.5-1.2,4.5C151.8,55.4,152.2,56.8,152.9,57.9z"/>
<path class="st3" d="M174.8,46.2c1,0.5,1.8,1.2,2.4,2c0.5,0.8,0.9,1.7,1,2.8c0.2,0.7,0.2,1.9,0.2,3.4h-11.4c0,1.6,0.4,2.9,1.1,3.8
c0.7,1,1.8,1.4,3.2,1.4c1.4,0,2.4-0.5,3.3-1.4c0.5-0.5,0.8-1.1,1-1.8h2.6c-0.1,0.6-0.3,1.2-0.7,1.9c-0.4,0.7-0.8,1.3-1.3,1.7
c-0.8,0.8-1.8,1.3-2.9,1.6c-0.6,0.2-1.3,0.2-2.1,0.2c-1.9,0-3.6-0.7-4.9-2.1c-1.3-1.4-2-3.4-2-6c0-2.5,0.7-4.6,2-6.1
c1.4-1.6,3.1-2.4,5.3-2.4C172.7,45.4,173.8,45.6,174.8,46.2z M175.8,52.3c-0.1-1.1-0.4-2-0.7-2.7c-0.7-1.3-1.9-1.9-3.6-1.9
c-1.2,0-2.2,0.4-3,1.3c-0.8,0.9-1.2,2-1.3,3.3H175.8z"/>
<path class="st3" d="M179.6,45.7h2.6V48c0.6-0.8,1.2-1.3,1.7-1.7c0.9-0.6,1.8-0.9,3-0.9c1.2,0,2.2,0.3,3,0.9
c0.4,0.4,0.8,0.9,1.2,1.5c0.6-0.8,1.3-1.5,2.1-1.9c0.8-0.4,1.7-0.6,2.7-0.6c2.1,0,3.5,0.8,4.3,2.3c0.4,0.8,0.6,1.9,0.6,3.3v10.4
h-2.7V50.5c0-1-0.3-1.8-0.8-2.1c-0.5-0.4-1.2-0.6-1.9-0.6c-1,0-1.9,0.3-2.7,1c-0.7,0.7-1.1,1.8-1.1,3.5v9.1h-2.7V51.2
c0-1.1-0.1-1.8-0.4-2.3c-0.4-0.7-1.1-1.1-2.2-1.1c-1,0-1.9,0.4-2.7,1.2c-0.8,0.8-1.2,2.2-1.2,4.2v8.3h-2.6V45.7z"/>
<path class="st3" d="M212,45.7h2.9c-0.4,1-1.2,3.3-2.5,6.9c-1,2.7-1.8,4.9-2.4,6.6c-1.5,4-2.6,6.4-3.2,7.3
c-0.6,0.9-1.7,1.3-3.2,1.3c-0.4,0-0.7,0-0.9,0s-0.4-0.1-0.7-0.2v-2.4c0.5,0.1,0.8,0.2,1,0.2c0.2,0,0.4,0,0.5,0
c0.5,0,0.8-0.1,1.1-0.2c0.2-0.2,0.4-0.4,0.6-0.6c0-0.1,0.2-0.5,0.5-1.2c0.3-0.7,0.5-1.3,0.7-1.6l-5.8-16.1h3l4.2,12.7L212,45.7z"
/>
</g>
<g>
<path class="st4" d="M0,43.8v-4h17.9v4h-6.6v17.9H6.6V43.8H0z"/>
<path class="st4" d="M17.9,45.8v2.9h0.1c0.2-0.5,0.5-0.9,0.8-1.4c0.3-0.4,0.7-0.8,1.2-1.1c0.4-0.3,0.9-0.5,1.4-0.7
c0.5-0.2,1-0.2,1.6-0.2c0.3,0,0.6,0.1,0.9,0.2v4.1c-0.2,0-0.4-0.1-0.7-0.1c-0.3,0-0.6,0-0.8,0c-0.8,0-1.5,0.1-2,0.4
c-0.6,0.3-1,0.6-1.3,1.1c-0.3,0.5-0.6,1-0.7,1.6c-0.1,0.6-0.2,1.3-0.2,2v7.1h-4.4V45.8H17.9z"/>
<path class="st4" d="M25.6,48.2c0.4-0.7,1-1.2,1.7-1.6c0.7-0.4,1.5-0.7,2.3-0.9c0.9-0.2,1.7-0.3,2.6-0.3c0.8,0,1.6,0.1,2.4,0.2
c0.8,0.1,1.6,0.3,2.2,0.7c0.7,0.3,1.2,0.8,1.7,1.4c0.4,0.6,0.6,1.4,0.6,2.3v8.3c0,0.7,0,1.4,0.1,2.1c0.1,0.7,0.2,1.1,0.4,1.5h-4.4
c-0.1-0.2-0.1-0.5-0.2-0.8c-0.1-0.3-0.1-0.5-0.1-0.8c-0.7,0.7-1.5,1.2-2.5,1.5c-0.9,0.3-1.9,0.4-2.9,0.4c-0.8,0-1.5-0.1-2.1-0.3
s-1.2-0.5-1.7-0.9c-0.5-0.4-0.9-0.9-1.2-1.5c-0.3-0.6-0.4-1.3-0.4-2.1c0-0.9,0.2-1.6,0.5-2.2c0.3-0.6,0.7-1,1.2-1.4
c0.5-0.3,1.1-0.6,1.7-0.8c0.6-0.2,1.3-0.3,1.9-0.4c0.7-0.1,1.3-0.2,1.9-0.2c0.6-0.1,1.2-0.2,1.7-0.3c0.5-0.1,0.9-0.3,1.2-0.5
c0.3-0.2,0.4-0.6,0.4-1c0-0.5-0.1-0.8-0.2-1.1c-0.2-0.3-0.4-0.5-0.6-0.6c-0.3-0.2-0.6-0.3-0.9-0.3c-0.3,0-0.7-0.1-1.1-0.1
c-0.9,0-1.5,0.2-2,0.6c-0.5,0.4-0.8,1-0.9,1.8h-4.4C24.9,49.7,25.2,48.8,25.6,48.2z M34.2,54.3c-0.3,0.1-0.6,0.2-0.9,0.2
c-0.3,0.1-0.6,0.1-1,0.2c-0.3,0-0.7,0.1-1,0.2c-0.3,0.1-0.6,0.1-1,0.2c-0.3,0.1-0.6,0.2-0.8,0.4c-0.2,0.2-0.4,0.4-0.6,0.7
c-0.1,0.3-0.2,0.6-0.2,1c0,0.4,0.1,0.7,0.2,1s0.3,0.5,0.6,0.6c0.2,0.2,0.5,0.3,0.9,0.3c0.3,0.1,0.7,0.1,1,0.1c0.9,0,1.5-0.1,2-0.4
c0.5-0.3,0.8-0.6,1-1c0.2-0.4,0.4-0.8,0.4-1.2c0-0.4,0.1-0.7,0.1-1v-1.6C34.7,54.1,34.5,54.2,34.2,54.3z"/>
<path class="st4" d="M52.7,59.7c-0.5,0.9-1.2,1.5-2,1.9c-0.8,0.4-1.8,0.6-2.8,0.6c-1.2,0-2.2-0.2-3.1-0.7
c-0.9-0.5-1.6-1.1-2.2-1.9c-0.6-0.8-1-1.7-1.3-2.7c-0.3-1-0.4-2.1-0.4-3.2c0-1.1,0.1-2.1,0.4-3.1c0.3-1,0.7-1.9,1.3-2.6
c0.6-0.8,1.3-1.4,2.2-1.8c0.9-0.5,1.9-0.7,3.1-0.7c0.9,0,1.8,0.2,2.7,0.6c0.8,0.4,1.5,1,2,1.8h0.1v-8h4.4v21.9h-4.1L52.7,59.7
L52.7,59.7z M52.5,51.8c-0.1-0.6-0.3-1.1-0.6-1.6c-0.3-0.5-0.7-0.8-1.2-1.1c-0.5-0.3-1.1-0.4-1.8-0.4s-1.3,0.1-1.8,0.4
c-0.5,0.3-0.9,0.7-1.2,1.1c-0.3,0.5-0.5,1-0.6,1.6c-0.1,0.6-0.2,1.2-0.2,1.9c0,0.6,0.1,1.2,0.2,1.8c0.1,0.6,0.4,1.2,0.7,1.6
c0.3,0.5,0.7,0.9,1.2,1.2c0.5,0.3,1.1,0.4,1.7,0.4c0.7,0,1.3-0.1,1.8-0.4c0.5-0.3,0.9-0.7,1.2-1.2c0.3-0.5,0.5-1,0.6-1.6
c0.1-0.6,0.2-1.2,0.2-1.9S52.6,52.4,52.5,51.8z"/>
<path class="st4" d="M63.7,57.9c0.7,0.6,1.6,1,2.8,1c0.9,0,1.6-0.2,2.3-0.7c0.6-0.4,1-0.9,1.2-1.4h3.8c-0.6,1.9-1.6,3.3-2.8,4.1
c-1.3,0.8-2.8,1.2-4.6,1.2c-1.2,0-2.4-0.2-3.4-0.6c-1-0.4-1.9-1-2.5-1.7c-0.7-0.7-1.2-1.6-1.6-2.6c-0.4-1-0.6-2.1-0.6-3.4
c0-1.2,0.2-2.3,0.6-3.3c0.4-1,0.9-1.9,1.7-2.7c0.7-0.7,1.6-1.3,2.6-1.8c1-0.4,2.1-0.6,3.3-0.6c1.4,0,2.5,0.3,3.5,0.8
c1,0.5,1.8,1.2,2.5,2.1s1.1,1.9,1.4,3c0.3,1.1,0.4,2.3,0.3,3.5H62.6C62.7,56.2,63,57.3,63.7,57.9z M68.6,49.5
c-0.5-0.6-1.3-0.9-2.4-0.9c-0.7,0-1.3,0.1-1.7,0.4c-0.5,0.2-0.8,0.5-1.1,0.9c-0.3,0.3-0.5,0.7-0.6,1.1c-0.1,0.4-0.2,0.7-0.2,1h7.1
C69.5,51,69.1,50.1,68.6,49.5z"/>
<path class="st4" d="M79.4,45.8v2.9h0.1c0.2-0.5,0.5-0.9,0.8-1.4c0.3-0.4,0.7-0.8,1.2-1.1s0.9-0.5,1.4-0.7c0.5-0.2,1-0.2,1.6-0.2
c0.3,0,0.6,0.1,0.9,0.2v4.1c-0.2,0-0.4-0.1-0.7-0.1c-0.3,0-0.6,0-0.8,0c-0.8,0-1.5,0.1-2,0.4c-0.6,0.3-1,0.6-1.3,1.1
c-0.3,0.5-0.6,1-0.7,1.6c-0.1,0.6-0.2,1.3-0.2,2v7.1h-4.4V45.8H79.4z"/>
<path class="st4" d="M90.3,57.8c0.2,0.3,0.4,0.6,0.8,0.8c0.3,0.2,0.7,0.4,1.1,0.5c0.4,0.1,0.8,0.2,1.2,0.2c0.3,0,0.6,0,1-0.1
c0.3-0.1,0.6-0.2,0.9-0.3c0.3-0.2,0.5-0.4,0.7-0.6c0.2-0.3,0.3-0.6,0.3-1c0-0.7-0.4-1.1-1.3-1.5c-0.9-0.3-2.1-0.7-3.6-1
c-0.6-0.1-1.3-0.3-1.9-0.5c-0.6-0.2-1.1-0.4-1.6-0.8c-0.5-0.3-0.8-0.7-1.1-1.2c-0.3-0.5-0.4-1.1-0.4-1.8c0-1,0.2-1.9,0.6-2.5
c0.4-0.7,0.9-1.2,1.6-1.5c0.7-0.4,1.4-0.6,2.2-0.8c0.8-0.2,1.7-0.2,2.5-0.2s1.7,0.1,2.5,0.2c0.8,0.2,1.5,0.4,2.2,0.8
c0.6,0.4,1.2,0.9,1.6,1.6c0.4,0.6,0.7,1.5,0.8,2.4H96c-0.1-0.8-0.4-1.4-1-1.7c-0.6-0.3-1.2-0.4-2-0.4c-0.2,0-0.5,0-0.8,0
c-0.3,0-0.5,0.1-0.8,0.2c-0.2,0.1-0.4,0.2-0.6,0.4c-0.2,0.2-0.2,0.5-0.2,0.8c0,0.4,0.1,0.7,0.4,1c0.3,0.2,0.7,0.4,1.1,0.6
c0.5,0.2,1,0.3,1.6,0.4c0.6,0.1,1.2,0.3,1.8,0.4c0.6,0.1,1.3,0.3,1.9,0.5c0.6,0.2,1.1,0.5,1.6,0.8c0.5,0.3,0.8,0.8,1.1,1.3
c0.3,0.5,0.4,1.1,0.4,1.9c0,1-0.2,1.9-0.6,2.6c-0.4,0.7-1,1.3-1.6,1.7c-0.7,0.4-1.4,0.7-2.3,0.9c-0.9,0.2-1.8,0.3-2.7,0.3
c-0.9,0-1.8-0.1-2.7-0.3c-0.9-0.2-1.7-0.5-2.3-0.9c-0.7-0.4-1.2-1-1.7-1.7c-0.4-0.7-0.7-1.6-0.7-2.7H90C90,57,90.1,57.4,90.3,57.8
z"/>
<path class="st4" d="M104.6,45.7v3.1c0,0.5,0,0.9-0.2,1.3c-0.1,0.4-0.3,0.7-0.6,1c-0.3,0.3-0.6,0.5-0.9,0.7
c-0.4,0.2-0.8,0.3-1.2,0.4v-1.4c0.5-0.2,0.9-0.4,1.1-0.8c0.2-0.3,0.3-0.8,0.3-1.3h-1.4v-3.1H104.6z"/>
</g>
</g>
<g>
<g>
<g>
<path class="st5" d="M88.5,77.1h-1v-4.8h1V77.1z"/>
<path class="st5" d="M92.2,73.7c0.2,0.2,0.4,0.5,0.4,1v2.4h-1v-2.2c0-0.2,0-0.3-0.1-0.4c-0.1-0.2-0.3-0.3-0.5-0.3
c-0.3,0-0.5,0.1-0.6,0.4c-0.1,0.1-0.1,0.3-0.1,0.5v1.9h-0.9v-3.6h0.9v0.5c0.1-0.2,0.2-0.3,0.3-0.4c0.2-0.1,0.4-0.2,0.7-0.2
C91.7,73.4,92,73.5,92.2,73.7z"/>
<path class="st5" d="M93,74.2v-0.7h0.5v-1h0.9v1H95v0.7h-0.6v1.9c0,0.1,0,0.2,0.1,0.3c0,0,0.2,0.1,0.3,0.1c0,0,0.1,0,0.1,0
c0,0,0.1,0,0.1,0v0.7l-0.4,0c-0.4,0-0.7-0.1-0.9-0.2c-0.1-0.1-0.2-0.3-0.2-0.5v-2.2H93z"/>
<path class="st5" d="M97.9,73.6c0.2,0.1,0.5,0.3,0.6,0.5c0.1,0.2,0.2,0.5,0.3,0.7c0,0.2,0,0.4,0,0.7h-2.6c0,0.4,0.1,0.6,0.4,0.8
c0.1,0.1,0.3,0.1,0.5,0.1c0.2,0,0.4-0.1,0.5-0.2c0.1-0.1,0.1-0.1,0.2-0.2h1c0,0.2-0.1,0.4-0.3,0.6c-0.3,0.3-0.8,0.5-1.3,0.5
c-0.5,0-0.9-0.1-1.3-0.4c-0.4-0.3-0.5-0.8-0.5-1.4c0-0.6,0.2-1.1,0.5-1.4c0.3-0.3,0.8-0.5,1.3-0.5C97.4,73.4,97.6,73.5,97.9,73.6
z M96.5,74.4c-0.1,0.1-0.2,0.3-0.2,0.6h1.6c0-0.2-0.1-0.4-0.2-0.6c-0.1-0.1-0.3-0.2-0.6-0.2C96.8,74.2,96.6,74.3,96.5,74.4z"/>
<path class="st5" d="M101.4,73.4C101.4,73.4,101.4,73.4,101.4,73.4l0.1,1c-0.1,0-0.1,0-0.2,0c0,0-0.1,0-0.1,0
c-0.4,0-0.6,0.1-0.8,0.4c-0.1,0.1-0.1,0.3-0.1,0.6v1.7h-0.9v-3.6h0.9v0.6c0.1-0.2,0.3-0.4,0.4-0.5
C100.8,73.5,101,73.4,101.4,73.4C101.3,73.4,101.3,73.4,101.4,73.4z"/>
<path class="st5" d="M103.4,74.9c0.2,0,0.3,0,0.4-0.1c0.1-0.1,0.2-0.1,0.2-0.3c0-0.1-0.1-0.2-0.2-0.3c-0.1-0.1-0.3-0.1-0.5-0.1
c-0.2,0-0.4,0.1-0.5,0.2c-0.1,0.1-0.1,0.2-0.1,0.3h-0.9c0-0.3,0.1-0.6,0.3-0.8c0.2-0.3,0.7-0.5,1.3-0.5c0.4,0,0.7,0.1,1,0.2
c0.3,0.2,0.5,0.4,0.5,0.9v1.6c0,0.1,0,0.3,0,0.4c0,0.1,0,0.2,0.1,0.2s0.1,0.1,0.1,0.1v0.1h-1c0-0.1,0-0.1-0.1-0.2
c0-0.1,0-0.1,0-0.2c-0.1,0.1-0.3,0.3-0.4,0.4c-0.2,0.1-0.4,0.2-0.7,0.2c-0.3,0-0.6-0.1-0.8-0.3c-0.2-0.2-0.3-0.4-0.3-0.8
c0-0.4,0.2-0.8,0.5-1c0.2-0.1,0.5-0.2,0.8-0.2L103.4,74.9z M104,75.4c-0.1,0-0.1,0.1-0.2,0.1s-0.1,0-0.3,0.1l-0.2,0
c-0.2,0-0.3,0.1-0.4,0.1c-0.1,0.1-0.2,0.2-0.2,0.4c0,0.2,0,0.3,0.1,0.3c0.1,0.1,0.2,0.1,0.3,0.1c0.2,0,0.4-0.1,0.6-0.2
c0.2-0.1,0.3-0.3,0.3-0.6V75.4z"/>
<path class="st5" d="M107.8,74.8c0-0.1-0.1-0.3-0.1-0.4c-0.1-0.1-0.3-0.2-0.5-0.2c-0.3,0-0.5,0.2-0.6,0.5
c-0.1,0.2-0.1,0.4-0.1,0.7c0,0.3,0,0.5,0.1,0.6c0.1,0.3,0.3,0.4,0.6,0.4c0.2,0,0.4-0.1,0.5-0.2c0.1-0.1,0.1-0.3,0.2-0.5h1
c0,0.3-0.1,0.6-0.3,0.8c-0.3,0.4-0.7,0.6-1.3,0.6c-0.6,0-1-0.2-1.3-0.5s-0.4-0.8-0.4-1.3c0-0.6,0.1-1.1,0.4-1.4
c0.3-0.3,0.7-0.5,1.2-0.5c0.4,0,0.8,0.1,1.1,0.3c0.3,0.2,0.5,0.6,0.5,1.1H107.8z"/>
<path class="st5" d="M109.1,74.2v-0.7h0.5v-1h0.9v1h0.6v0.7h-0.6v1.9c0,0.1,0,0.2,0.1,0.3s0.2,0.1,0.3,0.1c0,0,0.1,0,0.1,0
c0,0,0.1,0,0.1,0v0.7l-0.4,0c-0.4,0-0.7-0.1-0.9-0.2c-0.1-0.1-0.2-0.3-0.2-0.5v-2.2H109.1z"/>
<path class="st5" d="M112.6,73.1h-0.9v-0.9h0.9V73.1z M111.7,73.5h0.9v3.6h-0.9V73.5z"/>
<path class="st5" d="M115.7,73.5h1l-1.3,3.6h-1l-1.3-3.6h1l0.7,2.6L115.7,73.5z"/>
<path class="st5" d="M119.4,73.6c0.2,0.1,0.5,0.3,0.6,0.5c0.1,0.2,0.2,0.5,0.3,0.7c0,0.2,0,0.4,0,0.7h-2.6c0,0.4,0.1,0.6,0.4,0.8
c0.1,0.1,0.3,0.1,0.5,0.1c0.2,0,0.4-0.1,0.5-0.2c0.1-0.1,0.1-0.1,0.2-0.2h1c0,0.2-0.1,0.4-0.3,0.6c-0.3,0.3-0.8,0.5-1.3,0.5
c-0.5,0-0.9-0.1-1.3-0.4c-0.4-0.3-0.5-0.8-0.5-1.4c0-0.6,0.2-1.1,0.5-1.4c0.3-0.3,0.8-0.5,1.3-0.5
C118.9,73.4,119.2,73.5,119.4,73.6z M118,74.4c-0.1,0.1-0.2,0.3-0.2,0.6h1.6c0-0.2-0.1-0.4-0.2-0.6c-0.1-0.1-0.3-0.2-0.6-0.2
C118.3,74.2,118.1,74.3,118,74.4z"/>
<path class="st5" d="M121,72.3h2.1c0.6,0,1,0.2,1.2,0.5c0.1,0.2,0.2,0.4,0.2,0.7c0,0.3-0.1,0.6-0.3,0.7c-0.1,0.1-0.2,0.2-0.4,0.3
c0.2,0.1,0.4,0.2,0.6,0.3c0.2,0.2,0.3,0.5,0.3,0.9c0,0.3-0.1,0.6-0.3,0.8c-0.3,0.4-0.8,0.6-1.4,0.6h-2V72.3z M122.8,74.3
c0.3,0,0.5,0,0.6-0.1c0.2-0.1,0.4-0.3,0.4-0.6c0-0.3-0.1-0.5-0.4-0.6c-0.1-0.1-0.4-0.1-0.6-0.1h-1.2v1.5H122.8z M123,76.5
c0.4,0,0.7-0.1,0.9-0.3c0.1-0.1,0.2-0.3,0.2-0.5c0-0.3-0.2-0.6-0.5-0.7c-0.2-0.1-0.4-0.1-0.7-0.1h-1.3v1.7H123z"/>
<path class="st5" d="M125.4,73.6h0.6v0.6c0-0.1,0.2-0.3,0.3-0.4c0.2-0.2,0.4-0.3,0.6-0.3c0,0,0,0,0.1,0c0,0,0.1,0,0.1,0v0.6
c0,0-0.1,0-0.1,0c0,0-0.1,0-0.1,0c-0.3,0-0.5,0.1-0.7,0.3c-0.2,0.2-0.2,0.4-0.2,0.7v2h-0.6V73.6z"/>
<path class="st5" d="M130.1,73.9c0.3,0.3,0.5,0.7,0.5,1.3c0,0.6-0.1,1-0.4,1.4c-0.3,0.4-0.7,0.6-1.3,0.6c-0.5,0-0.9-0.2-1.1-0.5
c-0.3-0.3-0.4-0.8-0.4-1.3c0-0.6,0.1-1.1,0.4-1.4c0.3-0.3,0.7-0.5,1.2-0.5C129.4,73.5,129.8,73.6,130.1,73.9z M129.7,76.3
c0.1-0.3,0.2-0.6,0.2-1c0-0.3-0.1-0.6-0.2-0.8c-0.2-0.3-0.4-0.5-0.8-0.5c-0.4,0-0.6,0.1-0.8,0.4c-0.2,0.3-0.2,0.6-0.2,1
c0,0.4,0.1,0.7,0.2,0.9s0.4,0.4,0.8,0.4C129.3,76.7,129.6,76.6,129.7,76.3z"/>
<path class="st5" d="M131.2,72.3h0.6v2.8l1.5-1.5h0.8l-1.3,1.3l1.4,2.2h-0.8l-1.1-1.8l-0.5,0.5v1.3h-0.6V72.3z"/>
<path class="st5" d="M136.6,73.7c0.2,0.1,0.4,0.3,0.5,0.5c0.1,0.2,0.2,0.4,0.2,0.6c0,0.2,0.1,0.4,0.1,0.8h-2.6
c0,0.4,0.1,0.6,0.3,0.9c0.2,0.2,0.4,0.3,0.7,0.3c0.3,0,0.5-0.1,0.7-0.3c0.1-0.1,0.2-0.3,0.2-0.4h0.6c0,0.1-0.1,0.3-0.2,0.4
c-0.1,0.2-0.2,0.3-0.3,0.4c-0.2,0.2-0.4,0.3-0.7,0.4c-0.1,0-0.3,0.1-0.5,0.1c-0.4,0-0.8-0.2-1.1-0.5c-0.3-0.3-0.5-0.8-0.5-1.3
c0-0.6,0.2-1,0.5-1.4c0.3-0.4,0.7-0.5,1.2-0.5C136.1,73.5,136.4,73.6,136.6,73.7z M136.8,75.1c0-0.3-0.1-0.5-0.2-0.6
c-0.2-0.3-0.4-0.4-0.8-0.4c-0.3,0-0.5,0.1-0.7,0.3c-0.2,0.2-0.3,0.4-0.3,0.7H136.8z"/>
<path class="st5" d="M138.1,73.6h0.6v0.6c0-0.1,0.2-0.3,0.3-0.4c0.2-0.2,0.4-0.3,0.6-0.3c0,0,0,0,0.1,0s0.1,0,0.1,0v0.6
c0,0-0.1,0-0.1,0c0,0-0.1,0-0.1,0c-0.3,0-0.5,0.1-0.7,0.3c-0.2,0.2-0.2,0.4-0.2,0.7v2h-0.6V73.6z"/>
<path class="st5" d="M140.7,76c0,0.2,0.1,0.3,0.2,0.5c0.2,0.2,0.4,0.3,0.8,0.3c0.2,0,0.4,0,0.6-0.1c0.2-0.1,0.3-0.2,0.3-0.4
c0-0.2-0.1-0.3-0.2-0.3c-0.1,0-0.3-0.1-0.5-0.2l-0.5-0.1c-0.3-0.1-0.5-0.2-0.7-0.2c-0.3-0.2-0.4-0.4-0.4-0.7
c0-0.3,0.1-0.6,0.4-0.8c0.2-0.2,0.6-0.3,1-0.3c0.5,0,0.9,0.2,1.2,0.5c0.1,0.2,0.2,0.4,0.2,0.6h-0.6c0-0.1-0.1-0.3-0.1-0.4
c-0.1-0.2-0.4-0.2-0.7-0.2c-0.2,0-0.4,0-0.5,0.1c-0.1,0.1-0.2,0.2-0.2,0.3c0,0.2,0.1,0.3,0.2,0.4c0.1,0.1,0.2,0.1,0.4,0.1
l0.4,0.1c0.4,0.1,0.7,0.2,0.9,0.3c0.2,0.2,0.3,0.4,0.3,0.7c0,0.3-0.1,0.6-0.4,0.8c-0.2,0.2-0.6,0.3-1.1,0.3
c-0.5,0-0.9-0.1-1.1-0.4c-0.2-0.2-0.3-0.5-0.4-0.9H140.7z"/>
</g>
<g>
<linearGradient id="SVGID_00000103237194864101925530000000964944365069190826_" gradientUnits="userSpaceOnUse" x1="3571.3442" y1="74.933" x2="3575.2764" y2="74.933" gradientTransform="matrix(-1 0 0 1 3656.137 0)">
<stop offset="0" style="stop-color:#D61F27"/>
<stop offset="1" style="stop-color:#A31E22"/>
</linearGradient>
<polygon style="fill:url(#SVGID_00000103237194864101925530000000964944365069190826_);" points="84.8,77.1 80.9,77.1 80.9,72.8
"/>
<circle class="st7" cx="84.2" cy="73.8" r="1.2"/>
<polygon class="st7" points="84.8,68.2 80.9,72.8 80.9,77.1 "/>
</g>
</g>
<g>
<path class="st8" d="M72.4,72.3v1.8h0c0.1-0.2,0.2-0.3,0.4-0.4c0.2-0.1,0.4-0.1,0.7-0.1c0.3,0,0.5,0,0.7,0.1
c0.2,0.1,0.4,0.2,0.5,0.4c0.1,0.2,0.2,0.4,0.3,0.6c0.1,0.2,0.1,0.5,0.1,0.7s0,0.5-0.1,0.7c-0.1,0.2-0.2,0.4-0.3,0.6
c-0.1,0.2-0.3,0.3-0.5,0.4c-0.2,0.1-0.4,0.1-0.7,0.1c-0.1,0-0.2,0-0.3,0c-0.1,0-0.2,0-0.3-0.1c-0.1,0-0.2-0.1-0.3-0.2
c-0.1-0.1-0.2-0.2-0.2-0.3h0v0.5h-0.6v-4.8H72.4z M74.5,74.8c0-0.2-0.1-0.3-0.2-0.4c-0.1-0.1-0.2-0.2-0.3-0.3
c-0.1-0.1-0.3-0.1-0.5-0.1c-0.2,0-0.4,0-0.5,0.1c-0.1,0.1-0.2,0.2-0.3,0.3c-0.1,0.1-0.1,0.3-0.2,0.4c0,0.2-0.1,0.3-0.1,0.5
c0,0.2,0,0.3,0.1,0.5c0,0.2,0.1,0.3,0.2,0.4c0.1,0.1,0.2,0.2,0.3,0.3c0.1,0.1,0.3,0.1,0.5,0.1c0.2,0,0.4,0,0.5-0.1
c0.1-0.1,0.2-0.2,0.3-0.3c0.1-0.1,0.1-0.3,0.2-0.4c0-0.2,0.1-0.3,0.1-0.5C74.5,75.1,74.5,75,74.5,74.8z"/>
<path class="st8" d="M77,77.9c-0.1,0.1-0.1,0.2-0.2,0.3c-0.1,0.1-0.2,0.1-0.3,0.2c-0.1,0-0.2,0.1-0.3,0.1c-0.1,0-0.1,0-0.2,0
c-0.1,0-0.1,0-0.2,0v-0.5c0.1,0,0.1,0,0.2,0.1c0.1,0,0.1,0,0.2,0c0.1,0,0.2,0,0.3-0.1c0.1-0.1,0.1-0.1,0.2-0.2l0.2-0.6l-1.4-3.4
h0.6l1,2.8h0l1-2.8h0.6l-1.5,3.9C77.1,77.7,77,77.8,77,77.9z"/>
</g>
</g>
</svg>
