<svg width="24" height="24" viewBox="0 0 24 24" fill="none" xmlns="http://www.w3.org/2000/svg">
<path fill-rule="evenodd" clip-rule="evenodd" d="M21.0414 6.71447C20.3778 7.00513 19.664 7.20171 18.9154 7.28951C19.6797 6.83717 20.2663 6.12144 20.5432 5.26721C19.828 5.68628 19.0354 5.99029 18.1927 6.15416C17.5175 5.44389 16.5555 5 15.4903 5C13.4465 5 11.7888 6.63731 11.7888 8.65607C11.7888 8.94263 11.8217 9.22156 11.8852 9.48931C8.80899 9.3369 6.08143 7.88145 4.25571 5.66883C3.93716 6.20869 3.75442 6.83717 3.75442 7.50709C3.75442 8.77522 4.40836 9.89476 5.401 10.5502C4.79454 10.5314 4.22341 10.367 3.72461 10.0924C3.72433 10.108 3.72433 10.1235 3.72433 10.1388C3.72433 11.9102 5.00074 13.3878 6.69369 13.7234C6.38342 13.8074 6.05576 13.8518 5.71872 13.8518C5.47967 13.8518 5.24807 13.8292 5.02227 13.7867C5.49319 15.2389 6.85987 16.296 8.47995 16.3257C7.21292 17.3064 5.61714 17.8907 3.8825 17.8907C3.58438 17.8907 3.28901 17.8735 3 17.8395C4.63719 18.8772 6.58328 19.4822 8.67345 19.4822C15.4817 19.4822 19.2049 13.9113 19.2049 9.07951C19.2049 8.9211 19.2013 8.76323 19.1942 8.60672C19.9179 8.0914 20.5454 7.44765 21.0414 6.71447Z" fill="#F7618B"/>
</svg>
