<?xml version="1.0" encoding="utf-8"?>
<!-- Generator: Adobe Illustrator 25.4.1, SVG Export Plug-In . SVG Version: 6.00 Build 0)  -->
<svg version="1.1" id="Layer_1" xmlns="http://www.w3.org/2000/svg" xmlns:xlink="http://www.w3.org/1999/xlink" x="0px" y="0px"
	 viewBox="0 0 40 40" style="enable-background:new 0 0 40 40;" xml:space="preserve">
<g>
	<path d="M11.4,25.9c-0.4-3.3,0.6-6.5,2.7-9l-5.5-1.4V19h1.1v1H6.5v-0.9h1.1c0-1.2,0-2.4,0-3.6c0-0.1-0.2-0.3-0.4-0.3
		c-1.5-0.4-3.1-0.8-4.7-1.2l-0.3-0.1l2.4-0.6l15-3.8c0.2,0,0.4,0,0.6,0l17,4.3l0.5,0.2l-11.4,2.8c1.5,1.6,2.5,3.5,2.8,5.7
		c0.2,1.1,0.2,2.2,0.3,3.4h-0.1l-0.2-0.1c-1.4-1.6-3.4-2.6-5.6-2.9c-2.7-0.5-5.4-0.4-8,0.3c-1.5,0.4-2.9,1.2-3.9,2.3
		C11.6,25.6,11.5,25.8,11.4,25.9z M33.7,14L33.7,14l-0.3-0.2l-13.1-3.3c-0.2-0.1-0.4-0.1-0.6,0c-4.1,1-8.1,2-12.2,3.1l-1.2,0.3
		c0.1,0.1,0.3,0.2,0.4,0.2l12.7,3.2c0.3,0.1,0.7,0.1,1,0c3.4-0.9,6.9-1.7,10.3-2.6L33.7,14z M12.2,23.7c2.4-1.5,5.3-2.2,8.1-2.1
		c2.8-0.1,5.7,0.6,8.1,2c-0.2-2.4-1.3-4.7-3-6.4c-0.1-0.1-0.3-0.2-0.5-0.1c-1.5,0.4-3,0.8-4.6,1.1c-0.3,0.1-0.6,0.1-0.8,0l-4-1
		c-0.2,0-0.3,0-0.5,0.1C13.4,19.1,12.4,21.3,12.2,23.7z"/>
	<path d="M6.7,20.5h0.9v10.1H6.7V20.5z"/>
	<path d="M8.5,20.5h0.9v10.1H8.5V20.5z"/>
</g>
</svg>
