<?xml version="1.0" encoding="iso-8859-1"?>
<!-- Generator: Adobe Illustrator 16.0.0, SVG Export Plug-In . SVG Version: 6.00 Build 0)  -->
<!DOCTYPE svg PUBLIC "-//W3C//DTD SVG 1.1//EN" "http://www.w3.org/Graphics/SVG/1.1/DTD/svg11.dtd">
<svg version="1.1" id="art_blk" xmlns="http://www.w3.org/2000/svg" xmlns:xlink="http://www.w3.org/1999/xlink" x="0px" y="0px"
	 width="40.375px" height="40.375px" viewBox="0 0 40.375 40.375" enable-background="new 0 0 40.375 40.375" xml:space="preserve">
<g>
	<polygon fill="#231F20" points="13.057,10.701 13.764,9.994 8.682,4.912 3.6,9.994 4.307,10.701 8.182,6.826 8.182,20.654 
		12.354,20.654 12.354,19.654 9.182,19.654 9.182,6.826 	"/>
	<polygon fill="#231F20" points="35.791,29.607 31.916,33.482 31.916,19.654 27.744,19.654 27.744,20.654 30.916,20.654 
		30.916,33.482 27.041,29.607 26.334,30.314 31.416,35.396 36.498,30.314 	"/>
	<path fill="#231F20" d="M20.5,20.658v-6.238c1.104,0.117,2.64,0.54,3.95,1.867l0.85-0.828c-1.612-1.637-3.474-2.124-4.8-2.237
		v-2.78h-1.19v9.932c-2.318-0.56-3.737-1.107-3.885-2.802c-0.139-1.591,1.282-2.419,1.899-2.701c0.18-0.083,0.372-0.146,0.57-0.208
		v-1.235c-0.419,0.109-0.768,0.228-1.063,0.364c-1.761,0.807-2.728,2.258-2.587,3.884c0.244,2.8,2.919,3.423,5.279,3.97
		c2.942,0.686,4.739,1.271,4.903,3.629c0.139,1.985-1.609,2.838-2.369,3.11c-0.475,0.172-1.01,0.263-1.558,0.312v-4.917
		l-1.187-0.295v5.234c-2.116-0.152-4.048-1.175-5.253-2.826l-0.963,0.69c1.417,1.949,3.709,3.153,6.216,3.312v2.683h1.187v-2.701
		c0.69-0.052,1.363-0.162,1.959-0.378c2.108-0.76,3.286-2.37,3.151-4.308C25.395,22.103,22.829,21.226,20.5,20.658z"/>
</g>
</svg>
