<?xml version="1.0" encoding="iso-8859-1"?>
<!-- Generator: Adobe Illustrator 16.0.0, SVG Export Plug-In . SVG Version: 6.00 Build 0)  -->
<!DOCTYPE svg PUBLIC "-//W3C//DTD SVG 1.1//EN" "http://www.w3.org/Graphics/SVG/1.1/DTD/svg11.dtd">
<svg version="1.1" id="art_blk" xmlns="http://www.w3.org/2000/svg" xmlns:xlink="http://www.w3.org/1999/xlink" x="0px" y="0px"
	 width="40.375px" height="40.375px" viewBox="0 0 40.375 40.375" enable-background="new 0 0 40.375 40.375" xml:space="preserve">
<path fill="#231F20" d="M20.105,5.858c-7.882,0-14.295,6.413-14.295,14.295c0,7.881,6.413,14.292,14.295,14.292
	c7.881,0,14.295-6.411,14.295-14.292C34.4,12.271,27.986,5.858,20.105,5.858z M20.105,33.42c-1.978,0-3.763-2.346-4.833-5.844
	c1.557-0.313,3.176-0.482,4.833-0.482c1.657,0,3.277,0.17,4.834,0.482C23.869,31.074,22.083,33.42,20.105,33.42z M20.105,26.094
	c-1.747,0-3.457,0.181-5.1,0.517c-0.453-1.786-0.725-3.815-0.762-5.958h11.725c-0.037,2.142-0.309,4.171-0.762,5.958
	C23.562,26.275,21.853,26.094,20.105,26.094z M20.105,6.884c1.974,0,3.757,2.337,4.829,5.826c-1.557,0.312-3.175,0.481-4.829,0.481
	c-1.653,0-3.271-0.169-4.826-0.481C16.35,9.222,18.131,6.884,20.105,6.884z M20.105,14.191c1.745,0,3.454-0.181,5.096-0.516
	c0.457,1.791,0.73,3.828,0.768,5.978H14.244c0.038-2.15,0.311-4.187,0.767-5.978C16.653,14.01,18.361,14.191,20.105,14.191z
	 M13.244,19.653H6.835c0.109-2.924,1.159-5.607,2.866-7.755c1.351,0.656,2.797,1.176,4.313,1.553
	C13.55,15.302,13.28,17.404,13.244,19.653z M13.244,20.653c0.036,2.241,0.305,4.335,0.767,6.181
	c-1.519,0.378-2.967,0.899-4.319,1.557c-1.701-2.144-2.747-4.82-2.856-7.738H13.244z M26.969,20.653h6.406
	c-0.109,2.917-1.155,5.594-2.856,7.738c-1.351-0.657-2.799-1.179-4.316-1.557C26.664,24.988,26.933,22.894,26.969,20.653z
	 M26.969,19.653c-0.036-2.249-0.307-4.351-0.771-6.202c1.516-0.377,2.961-0.896,4.311-1.552c1.708,2.147,2.758,4.831,2.867,7.754
	H26.969z M29.827,11.114c-1.227,0.575-2.532,1.036-3.899,1.374c-0.699-2.315-1.71-4.159-2.922-5.303
	C25.671,7.782,28.029,9.181,29.827,11.114z M17.206,7.185c-1.212,1.144-2.222,2.988-2.921,5.303
	c-1.368-0.338-2.675-0.799-3.902-1.375C12.181,9.181,14.54,7.781,17.206,7.185z M10.371,29.175c1.228-0.577,2.537-1.039,3.908-1.378
	c0.698,2.321,1.709,4.17,2.922,5.317C14.531,32.517,12.169,31.113,10.371,29.175z M23.011,33.114
	c1.213-1.147,2.224-2.996,2.923-5.317c1.37,0.34,2.679,0.802,3.906,1.378C28.041,31.113,25.68,32.516,23.011,33.114z"/>
</svg>
