<?xml version="1.0" encoding="iso-8859-1"?>
<!-- Generator: Adobe Illustrator 24.1.0, SVG Export Plug-In . SVG Version: 6.00 Build 0)  -->
<svg version="1.1" xmlns="http://www.w3.org/2000/svg" xmlns:xlink="http://www.w3.org/1999/xlink" x="0px" y="0px"
	 viewBox="0 0 40.375 40.375" enable-background="new 0 0 40.375 40.375" xml:space="preserve">
<g id="art_blk">
</g>
<g id="Layer_2">
	<path fill="#1C2021" d="M15.184,10.462c-1.372,0-2.488-1.084-2.488-2.417s1.116-2.417,2.488-2.417c1.371,0,2.486,1.084,2.486,2.417
		S16.555,10.462,15.184,10.462z M15.184,6.728c-0.765,0-1.388,0.591-1.388,1.317s0.623,1.317,1.388,1.317
		c0.765,0,1.387-0.591,1.387-1.317S15.949,6.728,15.184,6.728z"/>
	<path fill="#1C2021" d="M31.383,10.462c-1.372,0-2.487-1.084-2.487-2.417s1.115-2.417,2.487-2.417c1.371,0,2.486,1.084,2.486,2.417
		S32.754,10.462,31.383,10.462z M31.383,6.728c-0.765,0-1.388,0.591-1.388,1.317s0.623,1.317,1.388,1.317s1.387-0.591,1.387-1.317
		S32.147,6.728,31.383,6.728z"/>
	<path fill="#1C2021" d="M23.822,17.434c-1.372,0-2.487-1.084-2.487-2.417c0-1.333,1.115-2.417,2.487-2.417
		c1.371,0,2.486,1.084,2.486,2.417C26.309,16.35,25.193,17.434,23.822,17.434z M23.822,13.7c-0.765,0-1.388,0.591-1.388,1.317
		s0.623,1.317,1.388,1.317s1.387-0.591,1.387-1.317S24.587,13.7,23.822,13.7z"/>
	<polygon fill="#1C2021" points="24.926,30.233 23.826,30.233 23.826,24.853 14.613,15.816 14.613,9.902 15.713,9.902 
		15.713,15.354 24.926,24.392 	"/>
	
		<rect x="24.397" y="11.045" transform="matrix(0.7199 -0.6941 0.6941 0.7199 -0.3105 22.4201)" fill="#1C2021" width="6.448" height="1.1"/>
	<path fill="#1C2021" d="M24.389,34.636c-1.372,0-2.487-1.084-2.487-2.417s1.115-2.417,2.487-2.417c1.371,0,2.486,1.084,2.486,2.417
		S25.76,34.636,24.389,34.636z M24.389,30.901c-0.765,0-1.388,0.591-1.388,1.317s0.623,1.317,1.388,1.317s1.387-0.591,1.387-1.317
		S25.153,30.901,24.389,30.901z"/>
	<path fill="#1C2021" d="M8.075,10.462c-1.372,0-2.487-1.084-2.487-2.417s1.116-2.417,2.487-2.417c1.371,0,2.486,1.084,2.486,2.417
		S9.446,10.462,8.075,10.462z M8.075,6.728c-0.765,0-1.388,0.591-1.388,1.317S7.31,9.362,8.075,9.362
		c0.765,0,1.387-0.591,1.387-1.317S8.84,6.728,8.075,6.728z"/>
	<polygon fill="#1C2021" points="17.817,30.233 16.717,30.233 16.717,24.853 7.504,15.816 7.504,9.902 8.604,9.902 8.604,15.354 
		17.817,24.392 	"/>
	<path fill="#1C2021" d="M17.28,34.636c-1.372,0-2.488-1.084-2.488-2.417s1.116-2.417,2.488-2.417c1.371,0,2.486,1.084,2.486,2.417
		S18.651,34.636,17.28,34.636z M17.28,30.901c-0.765,0-1.388,0.591-1.388,1.317s0.623,1.317,1.388,1.317
		c0.765,0,1.387-0.591,1.387-1.317S18.044,30.901,17.28,30.901z"/>
	<path fill="#1C2021" d="M7.943,27.135c-1.372,0-2.487-1.084-2.487-2.417c0-1.332,1.116-2.416,2.487-2.416s2.487,1.084,2.487,2.416
		C10.43,26.051,9.314,27.135,7.943,27.135z M7.943,23.401c-0.765,0-1.388,0.591-1.388,1.316c0,0.727,0.623,1.317,1.388,1.317
		c0.765,0,1.387-0.591,1.387-1.317C9.33,23.992,8.708,23.401,7.943,23.401z"/>
	<path fill="#1C2021" d="M7.943,34.636c-1.372,0-2.487-1.084-2.487-2.417s1.116-2.417,2.487-2.417s2.487,1.084,2.487,2.417
		S9.314,34.636,7.943,34.636z M7.943,30.901c-0.765,0-1.388,0.591-1.388,1.317s0.623,1.317,1.388,1.317
		c0.765,0,1.387-0.591,1.387-1.317S8.708,30.901,7.943,30.901z"/>
	<rect x="7.393" y="26.632" fill="#1C2021" width="1.1" height="3.72"/>
	<path fill="#1C2021" d="M31.44,22.646c-1.372,0-2.487-1.084-2.487-2.417s1.115-2.417,2.487-2.417c1.371,0,2.486,1.084,2.486,2.417
		S32.812,22.646,31.44,22.646z M31.44,18.912c-0.765,0-1.388,0.591-1.388,1.317s0.623,1.317,1.388,1.317s1.387-0.591,1.387-1.317
		S32.205,18.912,31.44,18.912z"/>
	<path fill="#1C2021" d="M31.44,30.146c-1.372,0-2.487-1.084-2.487-2.417s1.115-2.417,2.487-2.417c1.371,0,2.486,1.084,2.486,2.417
		S32.812,30.146,31.44,30.146z M31.44,26.412c-0.765,0-1.388,0.591-1.388,1.317s0.623,1.317,1.388,1.317s1.387-0.591,1.387-1.317
		S32.205,26.412,31.44,26.412z"/>
	<rect x="30.891" y="22.143" fill="#1C2021" width="1.1" height="3.72"/>
</g>
</svg>
