<?xml version="1.0" encoding="iso-8859-1"?>
<!-- Generator: Adobe Illustrator 16.0.0, SVG Export Plug-In . SVG Version: 6.00 Build 0)  -->
<!DOCTYPE svg PUBLIC "-//W3C//DTD SVG 1.1//EN" "http://www.w3.org/Graphics/SVG/1.1/DTD/svg11.dtd">
<svg version="1.1" id="art_blk" xmlns="http://www.w3.org/2000/svg" xmlns:xlink="http://www.w3.org/1999/xlink" x="0px" y="0px"
	 width="40.375px" height="40.375px" viewBox="0 0 40.375 40.375" enable-background="new 0 0 40.375 40.375" xml:space="preserve">
<g>
	<path fill="#231F20" d="M24.143,17.261c0.61-1.448,2.529-6.085,2.529-7.067V6.328h-6.519h-6.481v3.865
		c0,0.985,1.906,5.65,2.501,7.081c-2.962,1.474-5.001,4.522-5.001,8.054c0,4.971,4.029,9,9,9s9-4.029,9-9
		C29.172,21.785,27.119,18.729,24.143,17.261z M14.672,10.193V7.328h4.981v6.842h1V7.328h5.019v2.865
		c0,0.548-1.228,3.775-2.45,6.677c-0.953-0.345-1.978-0.542-3.05-0.542c-1.084,0-2.118,0.201-3.08,0.553
		C16.053,14.38,14.672,10.797,14.672,10.193z M20.172,33.328c-4.411,0-8-3.588-8-8c0-4.411,3.589-8,8-8s8,3.589,8,8
		C28.172,29.74,24.583,33.328,20.172,33.328z"/>
	<path fill="#231F20" d="M20.172,19.328c-3.313,0-6,2.688-6,6c0,3.314,2.687,6,6,6s6-2.686,6-6
		C26.172,22.016,23.485,19.328,20.172,19.328z M20.172,30.328c-2.757,0-5-2.242-5-5c0-2.756,2.243-5,5-5s5,2.245,5,5
		C25.172,28.086,22.929,30.328,20.172,30.328z"/>
</g>
</svg>
