<svg width="24" height="24" viewBox="0 0 24 24" fill="none" xmlns="http://www.w3.org/2000/svg">
<path d="M20.0515 13.9891V20.2942H16.396V14.4117C16.396 12.9347 15.8682 11.926 14.5447 11.926C13.5346 11.926 12.9346 12.6051 12.6696 13.2626C12.5734 13.4976 12.5486 13.8239 12.5486 14.1535V20.2939H8.89283C8.89283 20.2939 8.9419 10.3309 8.89283 9.29962H12.5489V10.8576C12.5415 10.8699 12.5311 10.8819 12.5246 10.8936H12.5489V10.8576C13.0347 10.1101 13.901 9.04146 15.8434 9.04146C18.2484 9.04146 20.0515 10.6128 20.0515 13.9891ZM5.0686 4C3.81812 4 3 4.82084 3 5.8993C3 6.95487 3.7944 7.79943 5.02062 7.79943H5.04433C6.31935 7.79943 7.11211 6.95487 7.11211 5.8993C7.08785 4.82084 6.31935 4 5.0686 4ZM3.21727 20.2942H6.87167V9.29962H3.21727V20.2942Z" fill="#F7618B"/>
</svg>
