<?xml version="1.0" encoding="utf-8"?>
<!-- Generator: Adobe Illustrator 24.2.1, SVG Export Plug-In . SVG Version: 6.00 Build 0)  -->
<svg version="1.1" id="Layer_1" xmlns="http://www.w3.org/2000/svg" xmlns:xlink="http://www.w3.org/1999/xlink" x="0px" y="0px"
	 viewBox="0 0 100 100" style="enable-background:new 0 0 100 100;" xml:space="preserve">
<style type="text/css">
	.st0{fill:#FFFFFF;}
</style>
<g>
	<path class="st0" d="M94.2,97.6c-0.9,0-1.8-0.4-2.5-1L3.4,8.2c-0.7-0.7-1-1.5-1-2.5c0-0.9,0.4-1.8,1-2.5c0.7-0.7,1.5-1,2.5-1
		c0.9,0,1.8,0.4,2.5,1l88.4,88.4c1.4,1.4,1.4,3.6,0,4.9C96,97.2,95.2,97.6,94.2,97.6z"/>
	<path class="st0" d="M5.9,2.8c0.8,0,1.5,0.3,2.1,0.9L96.4,92c1.2,1.2,1.2,3.1,0,4.2c-0.6,0.6-1.3,0.9-2.1,0.9
		c-0.8,0-1.5-0.3-2.1-0.9L3.8,7.9c-1.2-1.2-1.2-3.1,0-4.2C4.3,3.1,5.1,2.8,5.9,2.8 M5.9,1.8c-1,0-2,0.4-2.8,1.2
		C1.5,4.5,1.5,7,3.1,8.6l88.4,88.4c0.8,0.8,1.8,1.2,2.8,1.2c1,0,2-0.4,2.8-1.2c1.6-1.6,1.6-4.1,0-5.6L8.7,2.9
		C7.9,2.2,6.9,1.8,5.9,1.8L5.9,1.8z"/>
</g>
<g>
	<path class="st0" d="M6.1,98.3c-0.9,0-1.8-0.4-2.5-1s-1-1.5-1-2.5c0-0.9,0.4-1.8,1-2.5L92,3.9c0.7-0.7,1.5-1,2.5-1s1.8,0.4,2.5,1
		c0.7,0.7,1,1.5,1,2.5s-0.4,1.8-1,2.5L8.5,97.2C7.9,97.9,7,98.3,6.1,98.3z"/>
	<path class="st0" d="M94.4,3.4c0.8,0,1.5,0.3,2.1,0.9c1.2,1.2,1.2,3.1,0,4.2L8.2,96.9c-0.6,0.6-1.3,0.9-2.1,0.9
		c-0.8,0-1.5-0.3-2.1-0.9c-1.2-1.2-1.2-3.1,0-4.2L92.3,4.3C92.9,3.7,93.6,3.4,94.4,3.4 M94.4,2.4c-1,0-2,0.4-2.8,1.2L3.2,91.9
		c-1.6,1.6-1.6,4.1,0,5.6C4,98.4,5,98.8,6.1,98.8s2-0.4,2.8-1.2L97.2,9.2c1.6-1.6,1.6-4.1,0-5.6C96.5,2.8,95.4,2.4,94.4,2.4
		L94.4,2.4z"/>
</g>
</svg>
