<?xml version="1.0" encoding="utf-8"?>
<!-- Generator: Adobe Illustrator 24.2.1, SVG Export Plug-In . SVG Version: 6.00 Build 0)  -->
<svg version="1.1" id="Layer_1" xmlns="http://www.w3.org/2000/svg" xmlns:xlink="http://www.w3.org/1999/xlink" x="0px" y="0px"
	 viewBox="0 0 52 52" style="enable-background:new 0 0 52 52;" xml:space="preserve">
<style type="text/css">
	.st0{fill:#F7618B;}
	.st1{clip-path:url(#SVGID_2_);}
	.st2{fill:#FFFFFF;}
</style>
<path class="st0" d="M44,52H8c-4.4,0-8-3.6-8-8V8c0-4.4,3.6-8,8-8h36c4.4,0,8,3.6,8,8v36C52,48.4,48.4,52,44,52z"/>
<g>
	<defs>
		<rect id="SVGID_1_" x="14" y="14" width="24" height="24"/>
	</defs>
	<clipPath id="SVGID_2_">
		<use xlink:href="#SVGID_1_"  style="overflow:visible;"/>
	</clipPath>
	<g class="st1">
		<path class="st2" d="M37.3,20.1h-1.7v-1.7c0-0.4-0.3-0.7-0.7-0.7H14.7c-0.4,0-0.7,0.3-0.7,0.7v12.8c0,0.4,0.3,0.7,0.7,0.7h1.7v1.7
			c0,0.4,0.3,0.7,0.7,0.7h20.2c0.4,0,0.7-0.3,0.7-0.7V20.8C38,20.4,37.7,20.1,37.3,20.1L37.3,20.1z M36.6,32.9H17.8V21.5h18.8V32.9z
			 M15.4,30.5V19.1h18.8v1H17.1c-0.4,0-0.7,0.3-0.7,0.7v9.7H15.4z"/>
		<path class="st2" d="M20.4,24.3h6c0.4,0,0.7-0.3,0.7-0.7c0-0.4-0.3-0.7-0.7-0.7h-6c-0.4,0-0.7,0.3-0.7,0.7
			C19.7,24,20.1,24.3,20.4,24.3L20.4,24.3z"/>
		<path class="st2" d="M29.3,31.4h4.8c0.4,0,0.7-0.3,0.7-0.7c0-0.4-0.3-0.7-0.7-0.7h-4.8c-0.4,0-0.7,0.3-0.7,0.7
			C28.6,31.1,28.9,31.4,29.3,31.4z"/>
		<path class="st2" d="M29.3,29.2h4.8c0.4,0,0.7-0.3,0.7-0.7c0-0.4-0.3-0.7-0.7-0.7h-4.8c-0.4,0-0.7,0.3-0.7,0.7
			C28.6,28.9,28.9,29.2,29.3,29.2z"/>
		<path class="st2" d="M20.4,26.3h3c0.4,0,0.7-0.3,0.7-0.7c0-0.4-0.3-0.7-0.7-0.7h-3c-0.4,0-0.7,0.3-0.7,0.7
			C19.7,25.9,20.1,26.3,20.4,26.3z"/>
		<path class="st2" d="M22,31.5c1.3,0,2.3-1,2.3-2.3c0-1.2-1-2.3-2.3-2.3c-1.2,0-2.3,1-2.3,2.3C19.7,30.5,20.8,31.5,22,31.5z
			 M22,28.4c0.5,0,0.9,0.4,0.9,0.9s-0.4,0.9-0.9,0.9s-0.9-0.4-0.9-0.9C21.1,28.8,21.5,28.4,22,28.4z"/>
	</g>
</g>
</svg>
