<?xml version="1.0" encoding="utf-8"?>
<!-- Generator: Adobe Illustrator 24.2.1, SVG Export Plug-In . SVG Version: 6.00 Build 0)  -->
<svg version="1.1" id="Layer_1" xmlns="http://www.w3.org/2000/svg" xmlns:xlink="http://www.w3.org/1999/xlink" x="0px" y="0px"
	 viewBox="0 0 52 52" style="enable-background:new 0 0 52 52;" xml:space="preserve">
<style type="text/css">
	.st0{fill:#F5A55E;}
	.st1{fill:#FFFFFF;}
</style>
<path class="st0" d="M43,52H9c-4.9,0-9-4-9-9V9C0,4,4,0,9,0H43c4.9,0,9,4,9,9V43C52,48,48,52,43,52z"/>
<path class="st1" d="M35.4,29.6h-2.8c-2.6,0-4.9,1.3-6.3,3.3v-3.4c3.9-0.4,7-3.7,7-7.7c0-4.3-3.5-7.7-7.7-7.7
	c-4.3,0-7.7,3.5-7.7,7.7c0,4,3.1,7.3,7,7.7v3.4c-1.4-2-3.7-3.3-6.3-3.3h-2.8c-0.4,0-0.7,0.3-0.7,0.7c0,4.3,3.5,7.7,7.7,7.7h2.8h2.8
	c4.3,0,7.7-3.5,7.7-7.7C36.1,29.9,35.8,29.6,35.4,29.6z M22.7,36.6c-3.3,0-5.9-2.5-6.3-5.6h2.1c3.3,0,5.9,2.5,6.3,5.6H22.7z
	 M19.2,21.7c0-3.5,2.8-6.3,6.3-6.3c3.5,0,6.3,2.8,6.3,6.3c0,3.5-2.8,6.3-6.3,6.3C22.1,28.1,19.2,25.2,19.2,21.7z M28.4,36.6h-2.1
	c0.4-3.2,3-5.6,6.3-5.6h2.1C34.3,34.1,31.6,36.6,28.4,36.6z"/>
<path class="st1" d="M27.9,24.2c-0.5,0.5-1.3,0.5-1.8,0c-0.3-0.3-0.7-0.6-1.1-0.7c0.1-0.3,0.3-0.6,0.3-0.9H27c0.4,0,0.7-0.3,0.7-0.7
	s-0.3-0.7-0.7-0.7h-1.8l-0.3-1.5c0-0.7,0.7-1.3,1.4-1.3c0.8,0,1.4,0.6,1.4,1.4c0,0.4,0.3,0.7,0.7,0.7s0.7-0.3,0.7-0.7
	c0-1.6-1.3-2.8-2.8-2.8s-2.8,1.3-2.8,2.8c0,0.1,0,0,0.3,1.4h-1c-0.4,0-0.7,0.3-0.7,0.7s0.3,0.7,0.7,0.7h1c-0.1,0.4-0.4,0.8-0.9,1.1
	c-0.2,0.1-0.5,0.3-0.6,0.5c-0.3,0.3-0.3,0.7,0,0.9c0.2,0.3,0.6,0.3,0.9,0.1c0.2-0.1,0.3-0.2,0.5-0.4c0.2-0.1,0.3-0.1,0.5-0.1
	c0.3,0,0.7,0.1,0.9,0.4c1.1,1.1,2.8,1.1,3.8,0c0.3-0.3,0.3-0.7,0-1C28.6,24,28.1,24,27.9,24.2z"/>
</svg>
