<?xml version="1.0" encoding="utf-8"?>
<!-- Generator: Adobe Illustrator 24.2.1, SVG Export Plug-In . SVG Version: 6.00 Build 0)  -->
<svg version="1.1" id="Layer_1" xmlns="http://www.w3.org/2000/svg" xmlns:xlink="http://www.w3.org/1999/xlink" x="0px" y="0px"
	 viewBox="0 0 52 52" style="enable-background:new 0 0 52 52;" xml:space="preserve">
<style type="text/css">
	.st0{fill:#21CEC9;}
	.st1{clip-path:url(#SVGID_2_);}
	.st2{fill:#FFFFFF;}
</style>
<path class="st0" d="M44,52H8c-4.4,0-8-3.6-8-8V8c0-4.4,3.6-8,8-8h36c4.4,0,8,3.6,8,8v36C52,48.4,48.4,52,44,52z"/>
<g>
	<defs>
		<rect id="SVGID_1_" x="14" y="14" width="24" height="24"/>
	</defs>
	<clipPath id="SVGID_2_">
		<use xlink:href="#SVGID_1_"  style="overflow:visible;"/>
	</clipPath>
	<g class="st1">
		<path class="st2" d="M34.6,27.7L30,21.9c0.7-0.3,1.3-1.1,1.3-1.9c0-0.9-0.5-1.6-1.3-1.9l2.1-3c0.1-0.2,0.2-0.5,0-0.7
			C32,14.1,31.8,14,31.5,14h-3.7c-0.7,0-1.4,0.3-1.8,0.8c-0.5-0.5-1.1-0.8-1.8-0.8h-3.7c-0.3,0-0.5,0.1-0.6,0.4
			c-0.1,0.2-0.1,0.5,0,0.7l2.1,3c-0.8,0.3-1.3,1.1-1.3,1.9c0,0.9,0.5,1.6,1.3,1.9l-4.5,5.8c-0.9,1.1-1.3,2.5-1.3,3.9
			c0,3.5,2.9,6.4,6.4,6.4h7.1c3.5,0,6.4-2.9,6.4-6.4C35.9,30.2,35.4,28.8,34.6,27.7L34.6,27.7z M22.8,20.7c-0.4,0-0.7-0.3-0.7-0.7
			s0.3-0.7,0.7-0.7h6.5c0.4,0,0.7,0.3,0.7,0.7s-0.3,0.7-0.7,0.7H22.8z M24.1,15.4c0.6,0,1.2,0.5,1.2,1.2c0,0.4,0.3,0.7,0.7,0.7
			c0.4,0,0.7-0.3,0.7-0.7c0-0.6,0.5-1.2,1.2-1.2h2.4l-1.8,2.5h-4.8l-1.8-2.5H24.1z M29.5,36.6h-7.1c-2.7,0-5-2.2-5-5
			c0-1.1,0.4-2.2,1-3.1l5.1-6.5h4.9l5.1,6.5c0.7,0.9,1,2,1,3.1C34.5,34.4,32.3,36.6,29.5,36.6L29.5,36.6z"/>
		<path class="st2" d="M28.3,32.2c-0.5,0.5-1.3,0.5-1.8,0c-0.3-0.3-0.7-0.6-1.1-0.7c0.1-0.3,0.3-0.6,0.3-0.9h1.7
			c0.4,0,0.7-0.3,0.7-0.7s-0.3-0.7-0.7-0.7h-1.8l-0.3-1.5c0-0.7,0.7-1.3,1.4-1.3c0.8,0,1.4,0.6,1.4,1.4c0,0.4,0.3,0.7,0.7,0.7
			s0.7-0.3,0.7-0.7c0-1.6-1.3-2.8-2.8-2.8c-1.6,0-2.8,1.3-2.8,2.8c0,0.1,0,0,0.3,1.4h-1c-0.4,0-0.7,0.3-0.7,0.7s0.3,0.7,0.7,0.7h1
			c-0.1,0.4-0.4,0.8-0.9,1.1c-0.2,0.1-0.5,0.3-0.6,0.5c-0.3,0.3-0.3,0.7,0,0.9c0.2,0.3,0.6,0.3,0.9,0.1c0.2-0.1,0.3-0.2,0.5-0.4
			c0.2-0.1,0.3-0.1,0.5-0.1c0.3,0,0.7,0.1,0.9,0.4c1.1,1.1,2.8,1.1,3.8,0c0.3-0.3,0.3-0.7,0-1C29,32,28.6,32,28.3,32.2z"/>
	</g>
</g>
</svg>
