<?xml version="1.0" encoding="utf-8"?>
<!-- Generator: Adobe Illustrator 24.2.1, SVG Export Plug-In . SVG Version: 6.00 Build 0)  -->
<svg version="1.1" id="Layer_1" xmlns="http://www.w3.org/2000/svg" xmlns:xlink="http://www.w3.org/1999/xlink" x="0px" y="0px"
	 viewBox="0 0 52 52" style="enable-background:new 0 0 52 52;" xml:space="preserve">
<style type="text/css">
	.st0{fill:#F5A55E;}
	.st1{fill:#FFFFFF;}
</style>
<path class="st0" d="M44,52H8c-4.4,0-8-3.6-8-8V8c0-4.4,3.6-8,8-8h36c4.4,0,8,3.6,8,8v36C52,48.4,48.4,52,44,52z"/>
<path class="st1" d="M35.9,24.5v-0.6c0-5.4-4.4-9.9-9.9-9.9c-5.4,0-9.9,4.5-9.9,9.9v0.6c-1.3,0.7-2.1,2.1-2.1,3.7
	c0,2.1,1.6,3.9,3.6,4.2c0.3,0.8,1.1,1.4,2,1.4c1.2,0,2.1-0.9,2.1-2.1v-7c0-1.2-0.9-2.1-2.1-2.1c-0.9,0-1.7,0.6-2,1.4
	c0,0-0.1,0-0.1,0v-0.1c0-4.7,3.8-8.5,8.5-8.5s8.5,3.8,8.5,8.5V24c0,0-0.1,0-0.1,0c-0.3-0.8-1.1-1.4-2-1.4c-1.2,0-2.1,0.9-2.1,2.1v7
	c0,1.2,0.9,2.1,2.1,2.1c0.9,0,1.7-0.6,2-1.4c0,0,0.1,0,0.1,0v1.3c0,0.8-0.7,1.5-1.5,1.5h-5c-0.3-0.8-1.1-1.4-2-1.4
	c-1.2,0-2.1,0.9-2.1,2.1c0,1.2,0.9,2.1,2.1,2.1c0.9,0,1.7-0.6,2-1.4h5c1.6,0,2.9-1.3,2.9-2.9v-1.8c1.3-0.7,2.1-2.1,2.1-3.7
	S37.2,25.2,35.9,24.5z M18.9,24.6c0-0.4,0.3-0.7,0.7-0.7s0.7,0.3,0.7,0.7v7c0,0.4-0.3,0.7-0.7,0.7s-0.7-0.3-0.7-0.7V24.6z
	 M17.5,30.9c-1.2-0.3-2.1-1.4-2.1-2.7c0-1.3,0.9-2.4,2.1-2.7V30.9z M33.1,31.7c0,0.4-0.3,0.7-0.7,0.7s-0.7-0.3-0.7-0.7v-7
	c0-0.4,0.3-0.7,0.7-0.7s0.7,0.3,0.7,0.7V31.7z M26,36.6c-0.4,0-0.7-0.3-0.7-0.7c0-0.4,0.3-0.7,0.7-0.7s0.7,0.3,0.7,0.7
	C26.7,36.3,26.4,36.6,26,36.6z M34.5,30.9v-5.4c1.2,0.3,2.1,1.4,2.1,2.7C36.6,29.5,35.7,30.6,34.5,30.9z"/>
</svg>
