<?xml version="1.0" encoding="utf-8"?>
<!-- Generator: Adobe Illustrator 24.2.1, SVG Export Plug-In . SVG Version: 6.00 Build 0)  -->
<svg version="1.1" id="Layer_1" xmlns="http://www.w3.org/2000/svg" xmlns:xlink="http://www.w3.org/1999/xlink" x="0px" y="0px"
	 viewBox="0 0 52 52" style="enable-background:new 0 0 52 52;" xml:space="preserve">
<style type="text/css">
	.st0{fill:#5424B3;}
	.st1{fill:#FFFFFF;}
</style>
<path class="st0" d="M44,52H8c-4.4,0-8-3.6-8-8V8c0-4.4,3.6-8,8-8h36c4.4,0,8,3.6,8,8v36C52,48.4,48.4,52,44,52z"/>
<path class="st1" d="M15.4,26.7h3.3c0.1,1.6,0.3,3.1,0.7,4.5c-0.7,0.3-1.4,0.6-2.1,1C16.2,30.6,15.6,28.7,15.4,26.7z M17.4,19.8
	c0.6,0.4,1.3,0.7,2.1,1c-0.4,1.4-0.6,2.9-0.7,4.4h-3.3C15.6,23.3,16.2,21.4,17.4,19.8z M36.6,25.3h-3.3c-0.1-1.6-0.3-3.1-0.7-4.4
	c0.7-0.3,1.4-0.6,2.1-1C35.8,21.4,36.4,23.3,36.6,25.3z M31.8,25.3h-5.1V22c1.6-0.1,3.1-0.3,4.5-0.7C31.6,22.5,31.8,23.9,31.8,25.3z
	 M26.7,20.6v-5.1c1.2,0.3,2.4,1.3,3.3,2.9c0.3,0.5,0.5,1,0.8,1.6C29.5,20.3,28.1,20.5,26.7,20.6z M25.3,15.5v5.1
	c-1.4-0.1-2.8-0.3-4.1-0.6c0.2-0.6,0.5-1.1,0.8-1.6C22.9,16.8,24.1,15.8,25.3,15.5z M25.3,22v3.3h-5.1c0.1-1.4,0.3-2.8,0.6-4
	C22.2,21.7,23.7,21.9,25.3,22z M20.2,26.7h5.1V30c-1.6,0.1-3.1,0.3-4.5,0.7C20.4,29.5,20.2,28.1,20.2,26.7z M25.3,31.4v5.1
	c-1.2-0.3-2.4-1.3-3.3-2.9c-0.3-0.5-0.5-1-0.8-1.6C22.5,31.7,23.9,31.5,25.3,31.4z M26.7,36.5v-5.1c1.4,0.1,2.8,0.3,4.1,0.6
	c-0.2,0.6-0.5,1.1-0.8,1.6C29.1,35.2,27.9,36.2,26.7,36.5z M26.7,30v-3.3h5.1c-0.1,1.4-0.3,2.8-0.6,4C29.8,30.3,28.3,30.1,26.7,30z
	 M33.2,26.7h3.3c-0.1,2-0.8,3.9-2,5.5c-0.6-0.4-1.3-0.7-2.1-1C32.9,29.8,33.2,28.3,33.2,26.7z M33.7,18.7c-0.5,0.3-1,0.5-1.6,0.8
	c-0.3-0.7-0.5-1.3-0.9-1.8c-0.3-0.5-0.6-0.9-0.9-1.3c1.2,0.5,2.2,1.3,3.2,2.2C33.6,18.6,33.6,18.7,33.7,18.7z M21.7,16.3
	c-0.3,0.4-0.6,0.8-0.9,1.3c-0.3,0.6-0.6,1.2-0.9,1.8c-0.6-0.2-1.1-0.5-1.6-0.8c0.1-0.1,0.1-0.1,0.2-0.2
	C19.4,17.6,20.5,16.8,21.7,16.3z M18.3,33.3c0.5-0.3,1-0.5,1.6-0.8c0.3,0.7,0.5,1.3,0.9,1.8c0.3,0.5,0.6,0.9,0.9,1.3
	c-1.2-0.5-2.2-1.3-3.2-2.2C18.4,33.4,18.4,33.3,18.3,33.3z M30.3,35.7c0.3-0.4,0.6-0.8,0.9-1.3c0.3-0.6,0.6-1.2,0.9-1.8
	c0.6,0.2,1.1,0.5,1.6,0.8c-0.1,0.1-0.1,0.1-0.2,0.2C32.6,34.4,31.5,35.2,30.3,35.7z M38,26C38,26,38,26,38,26C38,26,38,26,38,26
	C38,26,38,26,38,26c0-3.2-1.3-6.2-3.5-8.5C32.2,15.2,29.2,14,26,14c0,0,0,0,0,0c0,0,0,0,0,0c0,0,0,0,0,0c-3.2,0-6.2,1.2-8.5,3.5
	C15.3,19.8,14,22.8,14,26c0,0,0,0,0,0c0,0,0,0,0,0c0,0,0,0,0,0c0,3.2,1.2,6.2,3.5,8.5c2.3,2.3,5.3,3.5,8.5,3.5c0,0,0,0,0,0h0
	c0,0,0,0,0,0c3.2,0,6.2-1.2,8.5-3.5C36.8,32.2,38,29.2,38,26z"/>
</svg>
