<?xml version="1.0" encoding="utf-8"?>
<!-- Generator: Adobe Illustrator 24.3.0, SVG Export Plug-In . SVG Version: 6.00 Build 0)  -->
<svg version="1.1" id="Layer_1" xmlns="http://www.w3.org/2000/svg" xmlns:xlink="http://www.w3.org/1999/xlink" x="0px" y="0px"
	 viewBox="0 0 52 52" style="enable-background:new 0 0 52 52;" xml:space="preserve">
<style type="text/css">
	.st0{fill:#B13BC0;}
	.st1{fill:#21CEC9;}
	.st2{clip-path:url(#SVGID_2_);}
	.st3{fill:#FFFFFF;}
	.st4{fill:none;stroke:#FFFFFF;stroke-width:1.5;stroke-miterlimit:10;}
	.st5{clip-path:url(#SVGID_4_);}
</style>
<path class="st0" d="M44,52H8c-4.4,0-8-3.6-8-8V8c0-4.4,3.6-8,8-8h36c4.4,0,8,3.6,8,8v36C52,48.4,48.4,52,44,52z"/>
<circle class="st4" cx="26" cy="23.4" r="4.9"/>
<path class="st4" d="M34.3,22.9l-0.7-0.7c-0.2-0.2-0.3-0.5-0.1-0.7l0.4-0.9c0.1-0.4,0-0.7-0.4-0.9l-0.8-0.3
	c-0.3-0.1-0.4-0.4-0.4-0.6v-0.9c0-0.4-0.3-0.7-0.7-0.7h-0.9c-0.3,0-0.5-0.2-0.6-0.4l-0.4-0.9c-0.1-0.3-0.5-0.5-0.9-0.4l-0.8,0.3
	c-0.3,0.1-0.6,0-0.7-0.1l-0.6-0.6c-0.3-0.3-0.7-0.3-1,0l-0.7,0.7c-0.2,0.2-0.5,0.3-0.7,0.1l-0.9-0.4c-0.4-0.1-0.7,0-0.9,0.4L22,16.7
	c-0.1,0.3-0.4,0.4-0.6,0.4h-0.9c-0.4,0-0.7,0.3-0.7,0.7v0.9c0,0.3-0.2,0.5-0.4,0.6l-0.9,0.4c-0.3,0.1-0.5,0.5-0.4,0.9l0.3,0.8
	c0.1,0.3,0,0.6-0.1,0.7l-0.6,0.6c-0.3,0.3-0.3,0.7,0,1l0.7,0.7c0.2,0.2,0.3,0.5,0.1,0.7l-0.4,0.9c-0.1,0.4,0,0.7,0.4,0.9l0.8,0.3
	c0.3,0.1,0.4,0.4,0.4,0.6v0.9c0,0.4,0.3,0.7,0.7,0.7h0.9c0.3,0,0.5,0.2,0.6,0.4l0.4,0.9c0.1,0.3,0.5,0.5,0.9,0.4l0.8-0.3
	c0.3-0.1,0.6,0,0.7,0.1l0.6,0.6c0.3,0.3,0.7,0.3,1,0l0.7-0.7c0.2-0.2,0.5-0.3,0.7-0.1l0.9,0.4c0.4,0.1,0.7,0,0.9-0.4L30,30
	c0.1-0.3,0.4-0.4,0.6-0.4h0.9c0.4,0,0.7-0.3,0.7-0.7v-0.9c0-0.3,0.2-0.5,0.4-0.6l0.9-0.4c0.3-0.1,0.5-0.5,0.4-0.9l-0.3-0.8
	c-0.1-0.3,0-0.6,0.1-0.7l0.6-0.6C34.5,23.6,34.5,23.1,34.3,22.9z"/>
<path class="st4" d="M21.7,29.5l-1.8,6.7c-0.1,0.3,0.2,0.4,0.5,0.3l1.8-1.2c0.1-0.1,0.3-0.1,0.4,0.1l1.1,1.7
	c0.1,0.2,0.5,0.2,0.5-0.1l1.9-5.8"/>
<path class="st4" d="M30.1,29.7l2,6.3c0.1,0.3-0.2,0.5-0.4,0.3l-1.8-1.1c-0.1-0.1-0.3,0-0.4,0.1l-1,1.8c-0.1,0.2-0.5,0.2-0.5-0.1
	L26,31.3"/>
<g>
	<path class="st4" d="M24.1,22l1.4-1c0.2-0.2,0.5,0,0.5,0.3v4.2"/>
	<line class="st4" x1="24.5" y1="25.5" x2="27.5" y2="25.5"/>
</g>
</svg>
