<svg width="105" height="53" viewBox="0 0 105 53" fill="none" xmlns="http://www.w3.org/2000/svg">
    <g clip-path="url(#clip0)">
        <path d="M8.92871 45.2667V51.2839H12.1019C13.5609 51.2839 14.5092 50.6235 14.5092 49.5925C14.5092 48.8367 14.0387 48.2386 13.3238 48.0735C13.9366 47.8864 14.3305 47.3801 14.3305 46.7857C14.3305 45.8684 13.4004 45.2667 11.9597 45.2667H8.92871ZM10.8983 46.727H11.8466C12.1202 46.727 12.2989 46.8884 12.2989 47.1489C12.2989 47.4131 12.1202 47.5855 11.8466 47.5855H10.8983V46.727ZM10.8983 48.9064H11.8466C12.215 48.9064 12.4521 49.0788 12.4521 49.343C12.4521 49.6365 12.215 49.8236 11.8466 49.8236H10.8983V48.9064Z" fill="#A8A8A8"/>
        <path d="M18.886 51.2839H21.1219L19.9438 49.3283C20.5565 48.9504 20.8921 48.2973 20.8921 47.4241C20.8921 46.0519 19.962 45.2704 18.3426 45.2704H15.4502V51.2876H17.4307V49.7246H18.1711L18.886 51.2839ZM17.4271 48.2129V46.7783H18.3389C18.7657 46.7783 19.0137 47.0352 19.0137 47.4828C19.0137 47.9451 18.7657 48.2129 18.3389 48.2129H17.4271Z" fill="#A8A8A8"/>
        <path d="M24.9589 45.208C23.055 45.208 21.6763 46.4848 21.6763 48.2716C21.6763 50.0658 23.0586 51.3683 24.9589 51.3683C26.8628 51.3683 28.2452 50.0548 28.2452 48.2716C28.2452 46.4958 26.8628 45.208 24.9589 45.208ZM24.9844 46.8627C25.6665 46.8627 26.2136 47.4534 26.2136 48.279C26.2136 49.1045 25.6665 49.7135 24.9844 49.7135C24.3024 49.7135 23.7042 49.1045 23.7042 48.279C23.7042 47.4571 24.2951 46.8627 24.9844 46.8627Z" fill="#A8A8A8"/>
        <path d="M32.9431 51.2839H35.3066L33.0489 47.6883L35.179 45.2667H32.903L31.1194 47.3544V45.2667H29.1389V51.2839H31.1194V49.8677L31.6994 49.2146L32.9431 51.2839Z" fill="#A8A8A8"/>
        <path d="M41.1351 46.7784V45.2667H36.0762V51.2839H41.2117V49.7723H38.053V49.0275H40.8542V47.5158H38.053V46.7784H41.1351Z" fill="#A8A8A8"/>
        <path d="M45.7417 51.2839H47.9776L46.7995 49.3283C47.4122 48.9504 47.7478 48.2973 47.7478 47.4241C47.7478 46.0519 46.8177 45.2704 45.1983 45.2704H42.3022V51.2876H44.2828V49.7246H45.0232L45.7417 51.2839ZM44.2828 48.2129V46.7783H45.1946C45.6214 46.7783 45.8694 47.0352 45.8694 47.4828C45.8694 47.9451 45.6214 48.2129 45.1946 48.2129H44.2828Z" fill="#A8A8A8"/>
        <path d="M51.7745 45.208C49.8961 45.208 48.532 46.4958 48.532 48.2643C48.532 50.0584 49.8633 51.3719 51.6979 51.3719C52.6207 51.3719 53.6347 50.8986 54.2985 50.1722L53.1569 48.9431C52.7629 49.365 52.2268 49.6292 51.8 49.6292C51.0851 49.6292 50.5636 49.0458 50.5636 48.2386C50.5636 47.4388 51.0851 46.8664 51.8 46.8664C52.2596 46.8664 52.7994 47.1856 53.1569 47.6736L54.2985 46.3087C53.6857 45.6373 52.6863 45.208 51.7745 45.208Z" fill="#A8A8A8"/>
        <path d="M60.8491 51.2839V45.2667H58.8722V47.6039H57.0193V45.2667H55.0388V51.2839H57.0193V49.1118H58.8722V51.2839H60.8491Z" fill="#A8A8A8"/>
        <path d="M78.9729 45.1824C77.4191 45.1824 76.4125 45.9382 76.4125 47.138C76.4125 49.2476 79.5091 48.734 79.5091 49.5155C79.5091 49.7319 79.3231 49.8237 79.0313 49.8237C78.4258 49.8237 77.3681 49.4017 76.7517 48.8881L76.0186 50.3814C76.8137 50.9904 77.9735 51.3426 79.013 51.3426C80.3626 51.3426 81.5297 50.7519 81.5297 49.4127C81.5297 47.2333 78.4331 47.7066 78.4331 46.9508C78.4331 46.7711 78.579 46.7013 78.7978 46.7013C79.3194 46.7013 80.2495 47.0719 80.855 47.4058L81.5699 45.8942C80.8987 45.4649 79.9176 45.1824 78.9729 45.1824Z" fill="#A8A8A8"/>
        <path d="M87.4419 46.7784V45.2667H82.3831V51.2839H87.5185V49.7723H84.3636V49.0275H87.1611V47.5158H84.3636V46.7784H87.4419Z" fill="#A8A8A8"/>
        <path d="M92.0486 51.2839H94.2845L93.1063 49.3283C93.7191 48.9504 94.0547 48.2973 94.0547 47.4241C94.0547 46.0519 93.1246 45.2704 91.5052 45.2704H88.6128V51.2876H90.5933V49.7246H91.3337L92.0486 51.2839ZM90.5897 48.2129V46.7783H91.5015C91.9282 46.7783 92.1763 47.0352 92.1763 47.4828C92.1763 47.9451 91.9282 48.2129 91.5015 48.2129H90.5897Z" fill="#A8A8A8"/>
        <path d="M65.1056 50.3189C63.9531 50.3703 62.8406 49.4603 62.8917 48.2606C62.8807 48.1138 62.6546 48.1138 62.6473 48.2606C62.5926 49.5741 63.7999 50.6124 65.0728 50.561C65.2114 50.5647 65.2406 50.3519 65.1056 50.3189Z" fill="#A8A8A8"/>
        <path d="M75.3949 47.5343C74.8113 44.8412 70.7007 44.4119 69.3366 46.683C68.9244 46.3932 68.3445 46.3895 67.925 46.683C66.7397 44.7348 63.4534 44.7165 62.2388 46.6464C61.0023 48.635 62.3737 51.2216 64.7008 51.35C67.0241 51.6435 68.9864 49.5449 68.1913 47.2481C68.4466 47.0463 68.815 47.0463 69.0703 47.2481C67.6515 52.4948 76.314 52.8433 75.3949 47.5343ZM67.6551 48.9615C67.367 50.0989 66.1962 50.7777 65.0728 50.7483C62.7348 50.8584 61.4437 48.0589 63.209 46.4592C65.0983 44.9183 68.381 46.3198 67.6551 48.9615ZM74.7639 48.9945C74.4648 50.1172 73.3049 50.7777 72.1888 50.7483C69.8655 50.8547 68.5633 48.0773 70.3141 46.4702C72.2326 44.9072 75.5189 46.3198 74.7639 48.9945Z" fill="#A8A8A8"/>
        <path d="M72.2326 50.3189C71.08 50.3703 69.9676 49.4603 70.0186 48.2606C70.0077 48.1138 69.7815 48.1138 69.7743 48.2606C69.7195 49.5741 70.9268 50.6124 72.1997 50.561C72.342 50.5647 72.3712 50.3519 72.2326 50.3189Z" fill="#A8A8A8"/>
    </g>
    <path d="M32.3121 32.6895C25.7136 32.9747 19.3444 27.8397 19.6315 21.0355C19.5771 20.2102 18.2713 20.2114 18.2273 21.0436C17.9182 28.4818 24.8396 34.3622 32.1269 34.062C32.9268 34.084 33.0958 32.8762 32.3121 32.6895Z" fill="#A8A8A8"/>
    <path d="M73.1495 32.6895C66.551 32.9747 60.1818 27.8397 60.4689 21.0355C60.4145 20.2102 59.1087 20.2114 59.0647 21.0436C58.7556 28.4818 65.677 34.3622 72.9642 34.062C73.7653 34.084 73.9343 32.8762 73.1495 32.6895Z" fill="#A8A8A8"/>
    <path d="M22.8426 39.5598C20.5343 38.447 17.9933 37.9057 15.4338 37.9787C13.8559 37.9926 10.4317 39.0463 10.5023 39.5945C10.6192 40.5045 15.0807 41.7876 16.4733 41.7911C21.8007 41.7911 22.6736 40.1614 22.8159 39.6884C22.8275 39.6467 22.8379 39.6026 22.8426 39.5598Z" fill="#A8A8A8"/>
    <path d="M16.5486 35.6686C14.6941 33.887 12.4379 32.5806 9.97215 31.8608C8.44872 31.3751 4.78022 31.2812 4.65519 31.8121C4.44914 32.6965 8.29244 35.2976 9.63412 35.737C15.6294 37.6994 16.5486 35.6686 16.5486 35.6686Z" fill="#A8A8A8"/>
    <path d="M12.1913 30.2322C10.7546 27.8861 8.77395 25.9213 6.41587 24.506C4.97 23.5903 1.20078 22.4961 0.92642 23.0119C0.47379 23.8708 3.74639 27.6056 5.0163 28.4251C10.691 32.0857 12.1913 30.2322 12.1913 30.2322Z" fill="#A8A8A8"/>
    <path d="M3.62375 20.6762C8.54596 25.351 10.3727 23.8024 10.3727 23.8024C9.39103 21.2163 7.80161 18.905 5.73641 17.0666C4.47923 15.8901 0.961219 14.105 0.594252 14.5629C-0.0134999 15.3267 2.52169 19.6283 3.62375 20.6762Z" fill="#A8A8A8"/>
    <path d="M11.0361 18.3834C10.8277 15.7672 9.98148 13.2449 8.57034 11.0403L8.56802 11.0368C7.71833 9.62725 4.9273 7.02382 4.46078 7.32751C3.68517 7.83406 4.86131 12.3999 5.60219 13.6564C8.90721 19.2435 11.0361 18.3834 11.0361 18.3834Z" fill="#A8A8A8"/>
    <path d="M12.7817 12.6399C13.2308 10.6206 13.1614 8.5191 12.5791 6.53349L12.5756 6.53117C12.2457 5.25611 10.6852 2.57269 10.2511 2.6689C9.53106 2.83466 9.38288 6.54276 9.66534 7.66945C10.9295 12.7025 12.7817 12.6399 12.7817 12.6399Z" fill="#A8A8A8"/>
    <path d="M16.0926 8.55854C16.9388 7.0818 17.3926 5.41379 17.4123 3.71333L17.41 3.70985C17.4632 2.6133 16.9041 0.0527538 16.5441 0.0029107C15.9456 -0.0782293 14.9361 2.78485 14.8817 3.74926C14.6433 8.06475 16.0926 8.55854 16.0926 8.55854Z" fill="#A8A8A8"/>
    <path d="M25.6856 39.6097C24.5211 39.9574 22.2116 41.469 22.3806 41.8596C22.6608 42.5076 26.2355 42.5041 27.2681 42.2085C31.211 41.0691 31.5096 39.6769 31.5131 39.2967C31.5131 39.2631 31.512 39.2295 31.5062 39.1959C29.5602 38.8655 27.5645 39.0081 25.6856 39.6097Z" fill="#A8A8A8"/>
    <path d="M35.5414 39.6114C34.6341 40.0125 32.9189 41.4735 33.0958 41.7725C33.389 42.2683 36.2831 41.8985 37.0889 41.5531C40.1647 40.2256 40.264 39.0678 40.2278 38.7596C40.2244 38.7324 40.22 38.7053 40.2119 38.6786C38.6024 38.611 37.0011 38.9313 35.5414 39.6114Z" fill="#A8A8A8"/>
    <path d="M45.3428 37.1807C44.8277 37.7262 44.0595 39.2471 44.2701 39.4036C44.6194 39.6632 46.5282 38.5573 46.9888 38.0804C48.7443 36.2539 48.475 35.4179 48.3597 35.2137C48.3494 35.1957 48.3384 35.1781 48.325 35.1619C47.1835 35.5865 46.1612 36.279 45.3428 37.1807Z" fill="#A8A8A8"/>
    <path d="M59.3476 37.1102C59.8455 37.6375 60.5881 39.1075 60.3845 39.2588C60.0468 39.5098 58.2018 38.4408 57.7565 37.9798C56.0596 36.2143 56.3199 35.4062 56.4313 35.2088C56.4413 35.1914 56.452 35.1744 56.465 35.1588C57.5683 35.5691 58.5565 36.2386 59.3476 37.1102Z" fill="#A8A8A8"/>
    <path d="M69.4708 39.6114C70.3781 40.0125 72.0933 41.4735 71.9164 41.7725C71.6232 42.2683 68.7291 41.8985 67.9233 41.5531C64.8475 40.2256 64.7483 39.0678 64.7844 38.7596C64.7878 38.7324 64.7922 38.7053 64.8003 38.6786C66.4098 38.611 68.0111 38.9313 69.4708 39.6114Z" fill="#A8A8A8"/>
    <path d="M89.5692 37.9788C87.0097 37.9058 84.4687 38.4482 82.1604 39.5599C82.165 39.6028 82.1754 39.6468 82.187 39.6885C82.3283 40.1615 83.2011 41.7912 88.5296 41.7912C89.9223 41.7877 94.3837 40.5046 94.5007 39.5946C94.5713 39.0464 91.147 37.9915 89.5692 37.9788Z" fill="#A8A8A8"/>
    <path d="M83.2381 38.0205C84.31 38.0182 87.7412 37.1221 87.8304 36.4869C87.8801 36.1311 85.6077 35.4704 84.3123 35.3718C85.118 34.8491 85.8774 34.2602 86.5801 33.6065C87.2376 33.6505 88.2147 33.5555 89.6559 33.1347C90.5045 32.8866 92.9343 31.4192 92.8035 30.9207C92.7248 30.6217 90.4061 30.6738 89.4418 30.9474C89.194 31.0123 88.9498 31.0853 88.7101 31.1665C89.0065 30.7457 89.2832 30.3064 89.539 29.8485C90.2683 29.7199 91.2974 29.3489 92.7213 28.49C93.5664 27.98 95.7439 25.6547 95.4429 25.1204C95.2611 24.7993 92.7526 25.4797 91.7906 26.05C91.4861 26.2204 91.1909 26.4047 90.9062 26.6006C91.1018 25.9399 91.2627 25.2514 91.3831 24.535C91.9515 24.2371 92.6368 23.7781 93.4576 23.0745C94.1683 22.4648 95.8041 19.961 95.4116 19.5159C95.1755 19.2493 92.9054 20.2879 92.095 20.973C91.9422 21.0958 91.7941 21.2222 91.6493 21.352C91.654 20.5418 91.6135 19.7014 91.5255 18.832C91.977 18.424 92.4944 17.8317 93.0674 16.9693C93.5444 16.2494 94.3026 13.6333 93.8025 13.3435C93.5015 13.1696 91.7049 14.6603 91.1574 15.4682L91.1562 15.4705C91.0879 15.5644 91.0231 15.6606 90.9594 15.7568C90.7464 15.0428 90.4859 14.3612 90.185 13.7086C90.3818 13.3319 90.5762 12.852 90.7533 12.2376C90.9374 11.5966 90.8413 9.48468 90.3702 9.38963C90.1028 9.33747 89.1825 10.6925 88.8965 11.4564C81.8605 1.29417 63.3223 0.980044 56.5572 12.102C54.1864 10.47 50.8779 10.441 48.4793 12.102C41.757 1.18753 23.2686 0.978884 16.1353 11.5387C15.8899 10.7945 14.9094 9.33631 14.6327 9.38963C14.1616 9.48352 14.0655 11.5955 14.2495 12.2376C14.4394 12.8984 14.6512 13.4037 14.8631 13.7921C14.5517 14.4528 14.2866 15.1204 14.0678 15.7939C13.9972 15.6849 13.9242 15.5771 13.8478 15.4717L13.8467 15.4693C13.3003 14.6614 11.5025 13.1696 11.2015 13.3446C10.7014 13.6344 11.4597 16.2506 11.9366 16.9704C12.4737 17.7784 12.9634 18.351 13.3941 18.7555C13.2818 19.5913 13.232 20.427 13.2459 21.2569C13.1359 21.1607 13.0236 21.0657 12.909 20.9741C12.0975 20.2902 9.82858 19.2505 9.59243 19.5171C9.19999 19.961 10.8357 22.4659 11.5465 23.0756C12.3661 23.7781 13.0514 24.2383 13.6186 24.535C13.7749 25.2676 13.9775 25.9874 14.2252 26.6922C13.9011 26.4627 13.5642 26.2471 13.2135 26.0512C12.2515 25.4809 9.74292 24.8005 9.56117 25.1215C9.26019 25.6559 11.4377 27.9811 12.2827 28.4912C13.8837 29.4567 14.9835 29.8045 15.722 29.8856C16.0091 30.369 16.3205 30.8396 16.6528 31.294C16.2974 31.1607 15.9339 31.0448 15.5623 30.9474C14.5991 30.6738 12.2793 30.6205 12.2005 30.9207C12.0709 31.4192 14.5007 32.8866 15.3481 33.1347C16.9619 33.6053 17.9933 33.6679 18.6462 33.5844C19.3141 34.2301 20.0353 34.8259 20.8063 35.3649C19.5364 35.431 17.1216 36.1206 17.1737 36.4881C17.264 37.1233 20.6952 38.0193 21.766 38.0216C23.411 38.0216 24.5038 37.8385 25.2296 37.5974C26.7195 38.0993 28.3158 38.4134 29.999 38.505C43.3174 40.1672 54.5568 28.2802 50.0027 15.292C51.4613 14.1421 53.5763 14.1421 55.0349 15.292C49.9958 33.7004 67.1251 41.4562 79.6367 37.5487C80.3591 37.8118 81.4843 38.0205 83.2381 38.0205ZM46.9246 25.0021C45.2738 31.4331 38.577 35.278 32.1302 35.1099C18.7457 35.737 11.3346 19.8892 21.4557 10.8362C32.276 2.12412 51.0828 10.0654 46.9246 25.0021ZM72.9051 35.1099C59.5878 35.7161 52.1293 19.9912 62.1693 10.9058C73.1401 2.05341 91.9654 10.0503 87.6509 25.1911C85.9376 31.5386 79.2848 35.2733 72.9051 35.1099Z" fill="#A8A8A8"/>
    <path d="M95.0308 31.8608C92.5651 32.5807 90.3089 33.887 88.4543 35.6686C88.4543 35.6686 89.3723 37.6995 95.3688 35.7382C96.7105 35.2989 100.554 32.6977 100.348 31.8133C100.223 31.2824 96.5554 31.3763 95.0308 31.8608Z" fill="#A8A8A8"/>
    <path d="M98.5869 24.5072C96.23 25.9225 94.2481 27.8872 92.8115 30.2334C92.8115 30.2334 94.3118 32.0868 99.9865 28.4274C101.256 27.6079 104.529 23.8731 104.076 23.0142C103.802 22.4972 100.033 23.5903 98.5869 24.5072Z" fill="#A8A8A8"/>
    <path d="M94.6301 23.8012C94.6301 23.8012 96.4569 25.351 101.379 20.675C102.481 19.6283 105.016 15.3256 104.409 14.5629C104.043 14.105 100.524 15.8901 99.2664 17.0654C97.2012 18.9038 95.6118 21.2152 94.6301 23.8012Z" fill="#A8A8A8"/>
    <path d="M99.4009 13.6564C100.142 12.4011 101.318 7.83522 100.542 7.32751C100.076 7.02382 97.2848 9.62726 96.4351 11.0368L96.4328 11.0403C95.0216 13.2449 94.1743 15.7672 93.967 18.3834C93.967 18.3834 96.0959 19.2435 99.4009 13.6564Z" fill="#A8A8A8"/>
    <path d="M95.3374 7.66945C95.6199 6.54392 95.4717 2.83466 94.7517 2.6689C94.3176 2.57269 92.7583 5.25495 92.4272 6.53117L92.4238 6.53349C91.8415 8.5191 91.7732 10.6195 92.2212 12.6399C92.2223 12.6399 94.0733 12.7025 95.3374 7.66945Z" fill="#A8A8A8"/>
    <path d="M87.5918 3.71332C87.6115 5.41494 88.0653 7.08295 88.9116 8.55854C88.9116 8.55854 90.3598 8.06474 90.1213 3.74809C90.0669 2.78252 89.0574 -0.0805611 88.4589 0.00173813C88.0989 0.0527404 87.5409 2.61329 87.593 3.70868L87.5918 3.71332Z" fill="#A8A8A8"/>
    <path d="M79.3172 39.6097C77.4384 39.0081 75.4427 38.8667 73.4967 39.1959C73.4909 39.2283 73.4897 39.2631 73.4897 39.2967C73.4944 39.6769 73.7919 41.069 77.7348 42.2085C78.7662 42.5029 82.3409 42.5075 82.6222 41.8596C82.7913 41.4689 80.483 39.9563 79.3172 39.6097Z" fill="#A8A8A8"/>
    <path d="M52.4901 36.7407C53.1094 36.7407 53.6115 36.258 53.6115 35.6627C53.6115 35.0673 53.1094 34.5847 52.4901 34.5847C51.8707 34.5847 51.3687 35.0673 51.3687 35.6627C51.3687 36.258 51.8707 36.7407 52.4901 36.7407Z" fill="#A8A8A8"/>
    <defs>
        <clipPath id="clip0">
            <rect width="85.3558" height="6.19518" fill="white" transform="translate(8.92871 45.1824)"/>
        </clipPath>
    </defs>
</svg>
