<svg xmlns="http://www.w3.org/2000/svg" width="35" height="40" viewBox="0 0 35 40">
  <g id="Group_220" data-name="Group 220" transform="translate(-77.625 -5022)">
    <path id="Path_7" data-name="Path 7" d="M16,24H31v2.5H16Z" transform="translate(76.625 5025.5)" fill="#db1222"/>
    <g id="Group_219" data-name="Group 219" transform="translate(77.625 5022)">
      <path id="Path_4" data-name="Path 4" d="M35.75,40H13.25A1.25,1.25,0,0,1,12,38.75V11.25A1.25,1.25,0,0,1,13.25,10h22.5A1.25,1.25,0,0,1,37,11.25v27.5A1.25,1.25,0,0,1,35.75,40ZM14.5,37.5h20v-25h-20Z" transform="translate(-2 0)" fill="#db1222"/>
      <path id="Path_5" data-name="Path 5" d="M16,16H31v2.5H16Z" transform="translate(-1 1.5)" fill="#db1222"/>
      <path id="Path_6" data-name="Path 6" d="M16,20H31v2.5H16Z" transform="translate(-1 2.5)" fill="#db1222"/>
      <path id="Path_8" data-name="Path 8" d="M6.5,29.5V4.5H29V3.25A1.25,1.25,0,0,0,27.75,2H5.25A1.25,1.25,0,0,0,4,3.25v27.5A1.25,1.25,0,0,0,5.25,32H6.5Z" transform="translate(-4 -2)" fill="#db1222"/>
      <path id="Path_9" data-name="Path 9" d="M10.5,33.5V8.5H33V7.25A1.25,1.25,0,0,0,31.75,6H9.25A1.25,1.25,0,0,0,8,7.25v27.5A1.25,1.25,0,0,0,9.25,36H10.5Z" transform="translate(-3 -1)" fill="#db1222"/>
    </g>
  </g>
</svg>
